<?xml version="1.0" encoding="utf-8"?>
<!-- Generated by IcoMoon.io -->
<!DOCTYPE svg PUBLIC "-//W3C//DTD SVG 1.1//EN" "http://www.w3.org/Graphics/SVG/1.1/DTD/svg11.dtd">
<svg version="1.1" xmlns="http://www.w3.org/2000/svg" xmlns:xlink="http://www.w3.org/1999/xlink" width="752" height="176" viewBox="0 0 752 176">
<svg id="icon-banknote" width="32" height="32" viewBox="0 0 32 32" x="0" y="0">
<path d="M31.415 10.586l-10-10c-0.362-0.363-0.863-0.587-1.415-0.587-0.894 0-1.65 0.586-1.907 1.395-0.493 1.55-1.32 2.861-2.402 3.912-1.661 1.502-3.532 2.818-5.553 3.888-2.633 1.388-4.774 2.913-6.69 4.678-1.511 1.481-2.679 3.347-3.341 5.438-0.082 0.27-0.114 0.472-0.114 0.683 0 0.554 0.225 1.055 0.589 1.417l10 10c0.362 0.362 0.862 0.586 1.414 0.586 0.894 0 1.651-0.586 1.907-1.395 0.493-1.55 1.32-2.862 2.402-3.912 1.66-1.502 3.532-2.817 5.553-3.886 2.632-1.39 4.773-2.916 6.689-4.681 1.511-1.48 2.679-3.346 3.341-5.438 0.082-0.27 0.114-0.472 0.114-0.682 0-0.553-0.224-1.053-0.587-1.415zM12 30l-10-10c2.841-9.2 15.159-8.8 18-18 3.313 3.311 6.689 6.688 10 10-2.841 9.2-15.159 8.8-18 18zM19.56 14.9c-0.274-0.243-0.603-0.432-0.965-0.545-0.258-0.076-0.533-0.117-0.818-0.117-0.067 0-0.133 0.002-0.199 0.007-0.358 0.030-0.698 0.111-1.015 0.237-0.311 0.123-0.649 0.265-0.989 0.429-0.537-0.617-1.074-1.226-1.612-1.793 0.18-0.186 0.424-0.31 0.695-0.338 0.034-0.002 0.068-0.002 0.102-0.002 0.197 0 0.388 0.025 0.571 0.073 0.195 0.049 0.384 0.097 0.566 0.13 0.036 0.009 0.077 0.014 0.119 0.014 0.136 0 0.26-0.051 0.354-0.134 0.137-0.117 0.227-0.288 0.235-0.48 0-0.006 0-0.012 0-0.017 0-0.218-0.087-0.416-0.229-0.561-0.192-0.228-0.458-0.388-0.761-0.443-0.131-0.024-0.273-0.036-0.417-0.036-0.185 0-0.364 0.021-0.537 0.060-0.324 0.076-0.625 0.2-0.898 0.364-0.245 0.141-0.47 0.31-0.671 0.501l-0.194-0.184c-0.066-0.062-0.156-0.1-0.254-0.1-0.006 0-0.011 0-0.017 0-0.11 0-0.208 0.052-0.272 0.132-0.059 0.068-0.094 0.155-0.094 0.252 0 0.114 0.050 0.216 0.128 0.286 0.065 0.055 0.13 0.109 0.195 0.166-0.242 0.292-0.453 0.625-0.62 0.982-0.162 0.339-0.268 0.699-0.31 1.079-0.013 0.097-0.019 0.191-0.019 0.287 0 0.249 0.043 0.488 0.122 0.71 0.123 0.307 0.327 0.574 0.585 0.775 0.399 0.332 0.911 0.531 1.47 0.531 0.071 0 0.141-0.003 0.211-0.010 0.761-0.060 1.467-0.285 2.090-0.641 0.567 0.695 1.159 1.373 1.75 2.002-0.181 0.171-0.404 0.299-0.651 0.368-0.084 0.021-0.167 0.031-0.253 0.031-0.1 0-0.196-0.014-0.288-0.040-0.158-0.050-0.301-0.121-0.431-0.211-0.108-0.077-0.237-0.154-0.372-0.222-0.134-0.069-0.271-0.106-0.417-0.108-0.174 0.011-0.329 0.085-0.443 0.2-0.149 0.118-0.244 0.298-0.246 0.5 0.013 0.223 0.108 0.421 0.254 0.567 0.182 0.198 0.4 0.359 0.645 0.473 0.276 0.132 0.582 0.214 0.906 0.234 0.051 0.003 0.102 0.005 0.153 0.005 0.325 0 0.636-0.062 0.921-0.174 0.415-0.166 0.782-0.418 1.082-0.735 0.176 0.169 0.352 0.331 0.526 0.487 0.066 0.055 0.152 0.089 0.245 0.089 0.12 0 0.227-0.055 0.297-0.141 0.060-0.067 0.097-0.156 0.097-0.253 0-0.014-0.001-0.029-0.002-0.043-0.006-0.097-0.053-0.183-0.124-0.242-0.177-0.141-0.352-0.289-0.528-0.445 0.272-0.33 0.511-0.703 0.703-1.104 0.171-0.353 0.283-0.724 0.33-1.116 0.010-0.086 0.015-0.167 0.015-0.248 0-0.255-0.049-0.499-0.137-0.723-0.127-0.299-0.329-0.56-0.581-0.759zM13.97 15.578c-0.015 0.001-0.033 0.001-0.052 0.001-0.272 0-0.518-0.112-0.694-0.292-0.090-0.086-0.157-0.195-0.194-0.317-0.031-0.095-0.047-0.198-0.047-0.305 0-0.042 0.003-0.083 0.008-0.123 0.017-0.168 0.066-0.325 0.14-0.467 0.085-0.173 0.193-0.327 0.321-0.463 0.506 0.501 1.011 1.058 1.518 1.63-0.286 0.178-0.625 0.298-0.989 0.335zM18.687 17.578c-0.090 0.169-0.195 0.314-0.316 0.444-0.558-0.567-1.119-1.188-1.678-1.827 0.142-0.064 0.293-0.131 0.455-0.2 0.14-0.060 0.303-0.109 0.473-0.139 0.071-0.011 0.137-0.016 0.204-0.016 0.108 0 0.212 0.013 0.312 0.038 0.172 0.047 0.327 0.141 0.45 0.266 0.127 0.117 0.22 0.268 0.265 0.439 0.022 0.090 0.034 0.186 0.034 0.284 0 0.074-0.007 0.147-0.019 0.217-0.034 0.182-0.096 0.35-0.182 0.504zM14.716 22.178v0c-0.663 0.502-1.25 1.010-1.802 1.554-0.516 0.514-0.995 1.069-1.431 1.658l-0.712 0.973c-0.057 0.080-0.090 0.179-0.090 0.287 0 0.276 0.224 0.5 0.5 0.5 0.145 0 0.275-0.061 0.366-0.16 0.029-0.029 0.053-0.062 0.073-0.098l0.64-0.877c0.432-0.584 0.879-1.1 1.361-1.579 0.523-0.52 1.082-1.003 1.673-1.446l0.041-0.029c0.139-0.090 0.23-0.245 0.23-0.421 0-0.276-0.224-0.5-0.5-0.5-0.135 0-0.258 0.054-0.348 0.141zM18.377 7.713c-0.512 0.504-1.059 0.976-1.635 1.413-0.087 0.054-0.126 0.083-0.16 0.116-0.096 0.092-0.155 0.221-0.155 0.364 0 0.279 0.226 0.505 0.505 0.505 0.136 0 0.259-0.054 0.35-0.141l-0 0c0.663-0.503 1.25-1.012 1.803-1.556 0.515-0.514 0.994-1.069 1.429-1.658l0.712-0.978c0.083-0.089 0.134-0.21 0.134-0.341 0-0.278-0.225-0.503-0.503-0.503-0.146 0-0.277 0.062-0.369 0.161-0.034 0.036-0.063 0.076-0.086 0.12l-0.666 0.913c-0.431 0.586-0.877 1.104-1.358 1.585z"></path>
</svg>
<svg id="icon-bubble" width="32" height="32" viewBox="0 0 32 32" x="48" y="0">
<path d="M16 7c-5.963 0-11 3.206-11 7 0 0.276 0.224 0.5 0.5 0.5s0.5-0.224 0.5-0.5c0-3.2 4.673-6 10-6 0.276 0 0.5-0.224 0.5-0.5s-0.224-0.5-0.5-0.5zM16 2c-8.837 0-16 5.373-16 12 0 4.127 2.779 7.766 7.008 9.926 0 0.027-0.008 0.045-0.008 0.074 0 1.793-1.339 3.723-1.928 4.736v0c-0.047 0.106-0.074 0.229-0.074 0.359 0 0.5 0.405 0.905 0.905 0.905 0 0 0.001 0 0.001 0 0.094 0 0.259-0.025 0.255-0.013 3.125-0.511 6.069-3.382 6.753-4.215 0.927 0.144 1.997 0.227 3.087 0.228 8.837 0 16.001-5.373 16.001-12s-7.164-12-16-12zM16 24c-0.989-0.001-1.959-0.076-2.907-0.22 0.022 0-0.075-0.008-0.175-0.008-0.003 0-0.006 0-0.009 0 0 0 0 0 0 0-0.621 0-1.176 0.283-1.543 0.728-0.889 0.985-1.905 1.827-3.028 2.509 0.349-0.824 0.61-1.825 0.661-2.881 0.007-0.082 0.010-0.147 0.010-0.202 0 0 0 0 0-0 0-0.772-0.438-1.443-1.079-1.776-3.718-1.898-5.93-4.943-5.93-8.15 0-5.514 6.28-10 14-10s14 4.486 14 10-6.28 10-14 10z"></path>
</svg>
<svg id="icon-bulb" width="22" height="32" viewBox="0 0 22 32" x="96" y="0">
<path d="M11 0c-6.075 0-11 4.925-11 11 0 4.031 3.689 8.3 5.031 12.055 2 5.6 1.782 8.945 5.969 8.945 4.25 0 3.965-3.334 5.969-8.922 1.347-3.76 5.031-8.078 5.031-12.078 0-6.075-4.925-11-11-11zM13.593 27.176l-4.959 0.62c-0.177-0.513-0.367-1.112-0.6-1.894-0.003-0.008-0.006-0.018-0.009-0.029l6.189-0.775c-0.088 0.3-0.183 0.606-0.264 0.884-0.129 0.449-0.25 0.839-0.357 1.194zM7.736 24.908q-0.271-0.9-0.615-1.908h7.766c-0.122 0.359-0.245 0.719-0.352 1.059zM11 30c-0.097 0.019-0.209 0.030-0.324 0.030-0.797 0-1.468-0.537-1.673-1.268l4.235-0.542c-0.61 1.653-1.057 1.78-2.238 1.78zM15.672 21h-9.333c-0.5-1.079-1.1-2.16-1.686-3.217-1.3-2.335-2.653-4.75-2.653-6.783 0-4.971 4.029-9 9-9s9 4.029 9 9c0 2.018-1.35 4.446-2.655 6.8-0.585 1.049-1.178 2.126-1.673 3.2zM11 5c-3.312 0.003-5.997 2.688-6 6 0 0.276 0.224 0.5 0.5 0.5s0.5-0.224 0.5-0.5c0.003-2.76 2.24-4.997 5-5 0.276 0 0.5-0.224 0.5-0.5s-0.224-0.5-0.5-0.5z"></path>
</svg>
<svg id="icon-calendar" width="32" height="32" viewBox="0 0 32 32" x="144" y="0">
<path d="M29.333 3h-4.333v-2c0-0.552-0.448-1-1-1s-1 0.448-1 1v2h-6v-2c0-0.552-0.448-1-1-1s-1 0.448-1 1v2h-6v-2c0-0.552-0.448-1-1-1s-1 0.448-1 1v2h-4.333c-0 0-0.001 0-0.001 0-1.472 0-2.666 1.194-2.666 2.666v23.667c0 1.473 1.194 2.667 2.667 2.667h26.667c1.473-0.001 2.666-1.194 2.666-2.667v-23.667c0-1.472-1.194-2.666-2.666-2.666-0 0-0.001 0-0.001 0zM30 29.333c0 0.368-0.299 0.667-0.667 0.667h-26.666c-0.368 0-0.667-0.299-0.667-0.667v-23.667c0.001-0.368 0.299-0.666 0.667-0.666 0 0 0 0 0 0h4.333v2c0 0.552 0.448 1 1 1s1-0.448 1-1v-2h6v2c0 0.552 0.448 1 1 1s1-0.448 1-1v-2h6v2c0 0.552 0.448 1 1 1s1-0.448 1-1v-2h4.333c0 0 0 0 0 0 0.368 0 0.666 0.298 0.667 0.666v23.667zM7 15h4v-3h-4v3zM7 20h4v-3h-4v3zM7 25h4v-3h-4v3zM14 25h4v-3h-4v3zM14 20h4v-3h-4v3zM14 15h4v-3h-4v3zM21 25h4v-3h-4v3zM21 20h4v-3h-4v3zM21 15h4v-3h-4v3z"></path>
</svg>
<svg id="icon-camera" width="32" height="32" viewBox="0 0 32 32" x="192" y="0">
<path d="M16 9.5c-4.418 0-8 3.582-8 8s3.582 8 8 8c4.418 0 8-3.582 8-8s-3.582-8-8-8zM20.555 21.4c-1.107 1.286-2.737 2.096-4.556 2.096-3.314 0-6-2.686-6-6s2.686-6 6-6c1.495 0 2.863 0.547 3.913 1.451 1.28 1.1 2.090 2.731 2.090 4.551 0 1.496-0.548 2.864-1.453 3.915zM16 13.5c-2.209 0-4 1.791-4 4v0c0 0.276 0.224 0.5 0.5 0.5s0.5-0.224 0.5-0.5v0c0-1.657 1.343-3 3-3 0.276 0 0.5-0.224 0.5-0.5s-0.224-0.5-0.5-0.5zM29.493 8.54l-4.335-0.723-1.373-3.434c-0.451-1.113-1.523-1.883-2.776-1.883-0.003 0-0.007 0-0.010 0h-9.999c-0.002 0-0.005 0-0.008 0-1.253 0-2.326 0.771-2.77 1.865l-1.379 3.453-4.333 0.723c-1.431 0.239-2.509 1.469-2.509 2.95 0 0.003 0 0.006 0 0.009v15c0 1.657 1.343 3 3 3h26c1.657 0 3-1.343 3-3v-15c0-0.002 0-0.005 0-0.008 0-1.481-1.076-2.71-2.489-2.947zM30 26.5c0 0.552-0.448 1-1 1h-26c-0.552 0-1-0.448-1-1v-15c0-0 0-0 0-0.001 0-0.494 0.359-0.905 0.83-0.986l5.45-0.908 1.791-4.478c0.152-0.371 0.51-0.628 0.928-0.628 0 0 0.001 0 0.001 0h10c0 0 0 0 0 0 0.419 0 0.777 0.257 0.926 0.622l1.793 4.485 5.444 0.907c0.477 0.082 0.836 0.492 0.836 0.986v15z"></path>
</svg>
<svg id="icon-clip" width="32" height="32" viewBox="0 0 32 32" x="240" y="0">
<path d="M29.363 4.134c-1.629-1.628-3.878-2.635-6.363-2.635s-4.734 1.007-6.363 2.635l-14.59 14.4c-1.355 1.279-2.199 3.088-2.199 5.094 0 3.866 3.134 7 7 7 2.008 0 3.819-0.846 5.096-2.201l14.593-14.403c0.976-0.915 1.585-2.212 1.585-3.652 0-2.761-2.239-5-5-5-1.441 0-2.74 0.61-3.652 1.585l-10.97 10.958c-0.188 0.182-0.305 0.437-0.305 0.719 0 0.552 0.448 1 1 1 0.282 0 0.537-0.117 0.719-0.305l10.969-10.958c0.535-0.504 1.258-0.813 2.054-0.813 1.657 0 3 1.343 3 3 0 0.795-0.309 1.517-0.813 2.054l-14.589 14.398c-0.916 0.983-2.217 1.596-3.662 1.596-2.761 0-5-2.239-5-5 0-1.443 0.611-2.743 1.589-3.656l14.45-14.264c1.249-1.176 2.937-1.898 4.793-1.898 3.866 0 7 3.134 7 7 0 1.853-0.72 3.539-1.896 4.791l-10.824 10.81c-0.163 0.177-0.263 0.415-0.263 0.676 0 0.552 0.448 1 1 1 0.262 0 0.501-0.101 0.679-0.266l10.965-10.955c1.627-1.626 2.633-3.872 2.633-6.354 0-2.483-1.008-4.731-2.636-6.356z"></path>
</svg>
<svg id="icon-clock" width="22" height="32" viewBox="0 0 22 32" x="288" y="0">
<path d="M10 11c0.552 0 1-0.448 1-1s-0.448-1-1-1c-0.552 0-1 0.448-1 1s0.448 1 1 1zM10 21c-0.552 0-1 0.448-1 1s0.448 1 1 1c0.552 0 1-0.448 1-1s-0.448-1-1-1zM4 15c-0.552 0-1 0.448-1 1s0.448 1 1 1c0.552 0 1-0.448 1-1s-0.448-1-1-1zM15 16c0 0.552 0.448 1 1 1s1-0.448 1-1c0-0.552-0.448-1-1-1s-1 0.448-1 1zM5.051 19.535c-0.181 0.181-0.293 0.431-0.293 0.707 0 0.552 0.448 1 1 1s1-0.448 1-1c0-0.276-0.112-0.526-0.293-0.707s-0.431-0.293-0.707-0.293-0.526 0.112-0.707 0.293zM5.051 11.051c-0.181 0.181-0.293 0.431-0.293 0.707 0 0.552 0.448 1 1 1s1-0.448 1-1c0-0.276-0.112-0.526-0.293-0.707s-0.431-0.293-0.707-0.293-0.526 0.112-0.707 0.293zM13.535 19.535c-0.181 0.181-0.293 0.431-0.293 0.707 0 0.552 0.448 1 1 1s1-0.448 1-1c0-0.276-0.112-0.526-0.293-0.707s-0.431-0.293-0.707-0.293-0.526 0.112-0.707 0.293zM20 14c-0.079 0.011-0.147 0.025-0.213 0.043-0.361-1.787-1.169-3.342-2.296-4.607l-1.426-7.801c-0.178-0.934-0.987-1.632-1.96-1.635h-8c-0 0-0 0-0.001 0-0.976 0-1.788 0.698-1.964 1.623l-1.402 7.561c-1.695 1.765-2.739 4.166-2.739 6.811 0 2.586 0.998 4.939 2.629 6.695l1.406 7.681c0.181 0.934 0.992 1.63 1.965 1.63 0 0 0 0 0.001 0h8c0 0 0 0 0.001 0 0.976 0 1.788-0.698 1.964-1.622l1.427-7.694c1.178-1.281 2.026-2.883 2.4-4.66 0.066-0.049 0.133-0.035 0.203-0.025 1.113 0 2.007-0.895 2.007-1.999s-0.895-2-2-2c-0.001 0-0.001 0-0.002 0zM6.105 2h8l1 5.386c-1.427-0.871-3.153-1.386-5-1.386s-3.573 0.515-5.043 1.41zM14 30h-8l-1-5.386c1.427 0.871 3.153 1.386 5 1.386s3.573-0.515 5.043-1.41zM10 24c-4.418 0-8-3.582-8-8s3.582-8 8-8c4.418 0 8 3.582 8 8-0.006 4.416-3.584 7.994-7.999 8zM14.941 11.026c-0.061-0.060-0.145-0.097-0.238-0.097-0.082 0-0.157 0.029-0.215 0.077l-5.187 4.285c-0.185 0.183-0.3 0.438-0.3 0.719 0 0 0 0 0 0 0 0.001 0 0.003 0 0.004 0 0.272 0.11 0.518 0.289 0.696 0.182 0.18 0.432 0.291 0.709 0.291 0.001 0 0.002 0 0.003 0 0.271-0 0.517-0.106 0.7-0.279l1.847-2.223 2.426-3.021c0.044-0.057 0.070-0.129 0.070-0.207 0-0.096-0.039-0.182-0.103-0.244z"></path>
</svg>
<svg id="icon-cloud" width="32" height="32" viewBox="0 0 32 32" x="336" y="0">
<path d="M25.914 12.643c-0.428-4.585-4.257-8.145-8.917-8.145-3.595 0-6.696 2.119-8.121 5.177-0.443-0.090-0.928-0.174-1.431-0.174-2.454 0-4.444 1.99-4.444 4.444 0 0.523 0.090 1.024 0.256 1.49-1.964 1.109-3.257 3.196-3.257 5.585 0 3.579 2.901 6.48 6.48 6.48 0.007 0 0.014 0 0.021-0h17.999c0.002 0 0.005 0 0.008 0 4.139 0 7.495-3.356 7.495-7.495 0-3.642-2.598-6.678-6.042-7.354zM24.5 25.5h-18c-2.484-0.003-4.497-2.016-4.5-4.5 0.001-1.649 0.899-3.089 2.232-3.856 1.393-0.799 1.487-0.955 0.912-2.37-0.085-0.23-0.137-0.495-0.144-0.771-0-1.384 1.119-2.503 2.5-2.503 0.034-0.001 0.075-0.002 0.115-0.002 0.445 0 0.87 0.086 1.26 0.241 1.125 0.449 1.25 0.011 1.792-1.168 1.123-2.422 3.533-4.072 6.329-4.072 3.623 0 6.598 2.77 6.924 6.308 0.126 1.459 0.126 1.459 1.618 1.8 2.539 0.521 4.421 2.737 4.421 5.393 0 3.023-2.439 5.477-5.457 5.5z"></path>
</svg>
<svg id="icon-cup" width="28" height="32" viewBox="0 0 28 32" x="384" y="0">
<path d="M26.112 5.023l-1.214-3.656c-0.273-0.801-1.019-1.367-1.897-1.367-0 0-0.001 0-0.001 0h-18c-0.001 0-0.002 0-0.003 0-0.878 0-1.624 0.566-1.893 1.353l-1.229 3.671c-1.045 0.062-1.869 0.922-1.875 1.975v3.001c0 1.105 0.895 2 2 2h1.034c-0.011 0.064-0.018 0.14-0.021 0.218l2 18.003c0.115 1.005 0.961 1.779 1.987 1.779h14c1.026-0 1.872-0.774 1.986-1.77l2.001-18.009c-0.003-0.081-0.010-0.157-0.022-0.232l1.035 0.011c1.105 0 2-0.895 2-2v-3c-0.005-1.059-0.837-1.922-1.883-1.977zM5 2h18l1 3h-20zM7 30l-0.333-3h14.666l-0.333 3h-14zM21.444 26h-14.888l-1.112-10h17.112zM22.667 15h-17.334l-0.333-3h18zM26 10h-24v-3h24v3z"></path>
</svg>
<svg id="icon-data" width="28" height="32" viewBox="0 0 28 32" x="432" y="0">
<path d="M14 0c-6.743 0-14 2.033-14 6.5v19c0 4.465 7.257 6.5 14 6.5s14-2.035 14-6.5v-19c0-4.467-7.257-6.5-14-6.5zM26 25.5c0 2.484-5.372 4.5-12 4.5s-12-2.016-12-4.5v-3.736c2.066 2.129 7.051 3.236 12 3.236s9.934-1.107 12-3.236v3.736zM26 19.5v0c0 0.010 0 0.022 0 0.031 0 2.469-5.373 4.469-12 4.469s-12-2-12-4.469c0-0.009 0-0.021 0-0.031v0-3.736c2.066 2.129 7.051 3.236 12 3.236s9.934-1.107 12-3.236v3.736zM26 13.5v0c0 0.010 0 0.022 0 0.031 0 2.469-5.373 4.469-12 4.469s-12-2-12-4.469c0-0.009 0-0.021 0-0.031v0-3.435c2.621 2 7.426 2.935 12 2.935s9.379-0.939 12-2.935v3.435zM14 11c-6.628 0-12-2.016-12-4.5s5.372-4.5 12-4.5 12 2.014 12 4.5-5.372 4.5-12 4.5zM23 27c0.552 0 1-0.448 1-1s-0.448-1-1-1c-0.552 0-1 0.448-1 1s0.448 1 1 1zM23 21c0.552 0 1-0.448 1-1s-0.448-1-1-1c-0.552 0-1 0.448-1 1s0.448 1 1 1zM23 15c0.552 0 1-0.448 1-1s-0.448-1-1-1c-0.552 0-1 0.448-1 1s0.448 1 1 1z"></path>
</svg>
<svg id="icon-diamond" width="32" height="32" viewBox="0 0 32 32" x="480" y="0">
<path d="M31.414 9.672l-5.080-5.081c-0.362-0.362-0.862-0.586-1.414-0.586h-17.839c-0.552 0-1.052 0.224-1.414 0.586l-5.080 5.081c-0.362 0.362-0.587 0.862-0.587 1.415 0 0.511 0.192 0.977 0.507 1.331l13.998 14.906c0.368 0.413 0.901 0.671 1.495 0.671s1.127-0.259 1.493-0.669l14.002-14.91c0.313-0.352 0.505-0.818 0.505-1.329 0-0.553-0.224-1.053-0.587-1.415zM18.22 11.005h-4.44l2.22-1.849zM16.781 8.505l2.734-2.278 2.017 2.018-2.532 2.109zM13 10.354l-2.532-2.109 2.017-2.018 2.734 2.278zM18.49 12.005l-2.49 12.453-2.49-12.453h4.98zM19.51 12.005h4.907l-7.36 12.269zM19.78 11.005l2.462-2.050 2.051 2.050h-4.513zM20.707 6.005h3.513l-1.916 1.6zM16 7.855l-2.22-1.85h4.44zM9.7 7.602l-1.916-1.6h3.513zM9.762 8.955l2.462 2.050h-4.513zM12.494 12.005l2.453 12.269-7.36-12.269h4.907zM12.708 22.484l-9.84-10.479h3.554zM25.586 12.005h3.555l-9.842 10.48zM25.711 11.005l-2.693-2.693 2.3-1.915 4.607 4.608h-4.212zM6.69 6.395l2.3 1.917-2.693 2.693h-4.287z"></path>
</svg>
<svg id="icon-display" width="32" height="32" viewBox="0 0 32 32" x="528" y="0">
<path d="M27 5h-22c-0.552 0-1 0.448-1 1v14c0 0.552 0.448 1 1 1h22c0.552 0 1-0.448 1-1v-14c0-0.552-0.448-1-1-1zM27 20h-22v-14h22v14zM29 1h-26c-1.657 0-3 1.343-3 3v20c0 0 0 0 0 0 0 1.653 1.337 2.994 2.989 3h10.011v1.216l-6.242 0.811c-0.445 0.108-0.769 0.503-0.769 0.973 0 0.552 0.448 1 1 1 0.004 0 0.008-0 0.012-0h17.999c0.552-0.001 0.999-0.448 0.999-1 0-0.466-0.319-0.857-0.75-0.968l-6.249-0.814v-1.217h10.010c1.653-0.006 2.99-1.347 2.99-3 0 0 0 0 0-0v-20c0-1.657-1.343-3-3-3zM30 24c0 0.552-0.448 1-1 1h-26c-0.552 0-1-0.448-1-1v-20c0-0.552 0.448-1 1-1h26c0.552 0 1 0.448 1 1v20z"></path>
</svg>
<svg id="icon-eye" width="32" height="32" viewBox="0 0 32 32" x="576" y="0">
<path d="M31.974 15.78c-0.005-0.049-0.013-0.093-0.022-0.135-0.008-0.009-0.017-0.023-0.026-0.036-0.005-0.028-0.013-0.053-0.021-0.077-3.102-5.711-9.058-9.525-15.906-9.525-6.844 0-12.799 3.811-15.856 9.428-0.054 0.114-0.061 0.139-0.066 0.165-0.008 0.020-0.023 0.029-0.029 0.046-0.008 0.036-0.015 0.080-0.019 0.125-0.023 0.070-0.036 0.147-0.036 0.227s0.013 0.157 0.037 0.229c0.002 0.043 0.009 0.087 0.019 0.129 0.005 0.011 0.020 0.020 0.027 0.036 0.006 0.029 0.013 0.054 0.021 0.078 3.102 5.711 9.058 9.525 15.906 9.525 6.844 0 12.799-3.811 15.856-9.428 0.054-0.114 0.062-0.139 0.067-0.165 0.008-0.020 0.022-0.029 0.028-0.046 0.008-0.035 0.016-0.079 0.021-0.123 0.022-0.072 0.034-0.149 0.034-0.228s-0.012-0.157-0.035-0.229zM16 23.993c-5.881-0.061-11.011-3.223-13.837-7.926 2.788-4.887 7.941-8.067 13.837-8.067s11.049 3.18 13.837 7.918c-2.828 4.851-7.956 8.013-13.828 8.075zM16 12h-0.006c-2.209 0-4 1.791-4 4 0 0.276 0.224 0.5 0.5 0.5s0.5-0.224 0.5-0.5c0-1.657 1.343-3 3-3v0c0.001 0 0.002 0 0.003 0 0.276 0 0.5-0.224 0.5-0.5 0-0.275-0.222-0.498-0.497-0.5zM15.977 9c-3.86 0.007-6.987 3.139-6.987 7 0 3.866 3.134 7 7 7s7-3.134 7-7c-0.004-3.867-3.14-7-7.007-7-0.002 0-0.004 0-0.006 0zM15.977 22c-3.309-0.006-5.989-2.69-5.989-6 0-3.314 2.686-6 6-6s6 2.686 6 6c-0.007 3.315-2.695 5.999-6.011 6z"></path>
</svg>
<svg id="icon-fire" width="22" height="32" viewBox="0 0 22 32" x="624" y="0">
<path d="M17 9c-0.174 1.901-0.928 3.6-2.081 4.946 0.007-4.988-3.919-8.946-3.919-8.946-0.162 2.235-0.903 4.27-2.070 5.991-1.455-4.556-4.238-8.303-7.876-10.948 2.924 10.905-1.062 14.887-1.062 22.849 0 4.672 3.954 9.108 10 9.108 8.957 0 10.689-3.288 11.615-6.993 1.281-5.101-0.629-11.031-4.606-16.007zM19.675 24.522c-0.645 2.568-1.375 5.478-9.675 5.478-5.008 0-8-3.614-8-7.108 0.060-2.584 0.421-5.057 1.050-7.42 0.638-2.251 1.034-5.089 1.034-8.020 0-0.605-0.017-1.207-0.050-1.804 1.916 2.919 3.365 6.244 4.15 9.817 1.28-1.507 2.489-3.437 3.555-5.454 0.716 0.945 1.262 4.988 1.262 8.988 1.798-1.571 3.338-3.374 4.589-5.376 2.154 3.66 2.911 7.593 2.083 10.898zM17.431 16.795l-0.849 0.985c-1.251 1.575-2.826 2.838-4.63 3.697-0.54-1.222-0.806-2.672-0.806-4.184 0-0.037 0-0.074 0-0.111l-0-1.704-1.517 2.378c-0.512 0.811-0.936 1.484-1.569 2.376-0.959-2.162-1.637-3.76-2.152-5.211l-0.479-1.35-0.519 1.51c-0.829 2.207-1.309 4.757-1.309 7.419 0 0.361 0.009 0.719 0.026 1.075-0.002 0.226 0.222 0.45 0.498 0.45s0.5-0.224 0.5-0.5c-0.012-0.272-0.019-0.59-0.019-0.91 0-2.149 0.314-4.225 0.897-6.184 0.481 1.475 1.137 2.978 1.999 4.903l0.351 0.784 0.508-0.693c0.83-1.129 1.324-1.889 1.865-2.743 0.163 1.335 0.474 2.548 0.92 3.693l0.147 0.425 0.5-0.239c1.959-0.856 3.616-2.066 4.961-3.562 0.046 0.333 0.065 0.736 0.065 1.143 0 1.505-0.267 2.948-0.755 4.284 0.005-0.032-0.008 0.032-0.008 0.099 0 0.209 0.128 0.388 0.311 0.463 0.059 0.024 0.123 0.037 0.19 0.037 0.209-0 0.387-0.128 0.462-0.31 0.509-1.374 0.802-2.956 0.802-4.608 0-0.841-0.076-1.663-0.222-2.462z"></path>
</svg>
<svg id="icon-food" width="32" height="32" viewBox="0 0 32 32" x="672" y="0">
<path d="M29.5 20.99h-2.691c-0.045-0.24-0.1-0.473-0.16-0.707l4.8-2.4c0.331-0.169 0.553-0.507 0.553-0.896 0-0.554-0.449-1.003-1.003-1.003-0.164 0-0.319 0.039-0.456 0.109l-4.571 2.29c-1.777-3.812-5.576-6.407-9.982-6.407-5.37 0-9.84 3.856-10.792 8.95l-2.699 0.068c-1.381 0-2.5 1.119-2.5 2.5 0 0.003-0 0.006-0 0.009 0 0.508 0.19 0.972 0.502 1.325l3.498 3.937v0.741c0.003 1.38 1.12 2.497 2.5 2.5h19c1.379-0.003 2.497-1.121 2.5-2.5v-0.741l3.494-3.939c0.313-0.351 0.504-0.816 0.506-1.326 0-0.002 0-0.004 0-0.005 0-1.382-1.119-2.502-2.5-2.505zM25.8 20.99h-0.562l0.5-0.25c0.017 0.084 0.043 0.165 0.062 0.25zM16 12.975c4.012 0.007 7.47 2.376 9.056 5.79l-0.865 0.508c-1.444-3.148-4.568-5.295-8.194-5.295-4.263 0-7.833 2.969-8.755 6.952l-1.042 0.061c0.965-4.599 4.983-8.005 9.799-8.015zM20.576 20.99c-0.786-1.784-2.538-3.006-4.576-3.006s-3.79 1.223-4.563 2.974l-1.087 0.032c0.842-2.354 3.054-4.009 5.652-4.009 2.457 0 4.568 1.479 5.492 3.596l-0.731 0.413h-0.187zM16 19.99c-0.882 0.002-1.673 0.387-2.217 0.997l-1.227 0.003c0.694-1.206 1.976-2.004 3.444-2.004s2.75 0.799 3.434 1.985l-1.215 0.019c-0.546-0.614-1.337-0.999-2.218-1.002zM16 15.982c-3.153 0.007-5.816 2.094-6.692 4.96l-1.045 0.050c0.909-3.483 4.027-6.012 7.736-6.012 3.236 0 6.023 1.926 7.276 4.693l-0.873 0.497c-1.11-2.484-3.557-4.184-6.401-4.191zM26 28v1.5c0 0.276-0.224 0.5-0.5 0.5h-19c-0.276 0-0.5-0.224-0.5-0.5v-1.5l-4-4.509c0-0.276 0.224-0.5 0.5-0.5h27c0.276 0 0.5 0.224 0.5 0.5zM7.976 11.68l0.008 0.018c0.084 0.164 0.252 0.274 0.446 0.274 0.276 0 0.5-0.224 0.5-0.5 0-0.002-0-0.005-0-0.007-0-0.045-0.007-0.088-0.019-0.129 0.002 0.001 0.002-0.003 0.002-0.006s-0.001-0.007-0.002-0.010c-0.077-0.285-0.121-0.613-0.121-0.951 0-0.72 0.201-1.393 0.55-1.965 0.386-0.642 0.619-1.436 0.619-2.286 0-0.483-0.076-0.948-0.216-1.385-0.064-0.153-0.241-0.281-0.448-0.281-0.271 0-0.49 0.219-0.49 0.49 0 0 0 0 0 0 0.001 0.061 0.013 0.119 0.033 0.172s-0.001-0.003-0.001 0.003v0.009s0 0.008 0 0.012c0.4 0.911 0.014 1.844-0.427 2.9-0.402 0.669-0.64 1.476-0.64 2.338 0 0.449 0.065 0.884 0.185 1.294zM20.155 11.534l0.008 0.018c0.084 0.164 0.252 0.274 0.446 0.274 0.276 0 0.5-0.224 0.5-0.5 0-0.002-0-0.005-0-0.007-0.001-0.044-0.007-0.087-0.019-0.128 0.002 0.001 0.002-0.003 0.002-0.006s-0.001-0.007-0.002-0.010c-0.077-0.285-0.121-0.613-0.121-0.951 0-0.72 0.201-1.392 0.549-1.965 0.386-0.641 0.62-1.436 0.62-2.285 0-0.483-0.076-0.949-0.216-1.386-0.063-0.154-0.241-0.283-0.448-0.283-0.27 0-0.489 0.219-0.489 0.489 0 0.001 0 0.002 0 0.003 0 0.061 0.012 0.119 0.033 0.173-0.001-0.002-0.001-0-0.001 0.001s0 0.003 0 0.005l-0 0.012c0.4 0.911 0.013 1.844-0.428 2.9-0.402 0.668-0.639 1.475-0.639 2.337 0 0.45 0.065 0.885 0.185 1.296 0.008-0.008 0.014 0.005 0.020 0.019zM15.018 7.21l0.008 0.018c0.084 0.164 0.252 0.274 0.446 0.274 0.276 0 0.5-0.224 0.5-0.5 0-0.003-0-0.005-0-0.007-0-0.044-0.007-0.087-0.019-0.128 0.002 0 0.002-0.003 0.002-0.007s-0.001-0.007-0.002-0.010c-0.077-0.285-0.121-0.613-0.121-0.951 0-0.72 0.201-1.393 0.55-1.966 0.386-0.642 0.619-1.436 0.619-2.286 0-0.483-0.076-0.948-0.216-1.385-0.064-0.153-0.241-0.281-0.448-0.281-0.271 0-0.49 0.219-0.49 0.49 0 0 0 0 0 0 0.001 0.061 0.012 0.12 0.033 0.173s-0.001-0.003-0.001 0.003c-0 0.001-0 0.003-0 0.004s0 0.003 0 0.004v0.012c0.4 0.911 0.014 1.845-0.427 2.9-0.402 0.669-0.64 1.476-0.64 2.338 0 0.449 0.065 0.884 0.185 1.294 0.009-0.013 0.014-0 0.020 0.014z"></path>
</svg>
<svg id="icon-heart" width="32" height="32" viewBox="0 0 32 32" x="720" y="0">
<path d="M29.192 4.792c-1.737-1.708-4.121-2.762-6.751-2.762-2.48 0-4.742 0.938-6.449 2.478-1.69-1.541-3.953-2.479-6.434-2.479-2.629 0-5.012 1.053-6.75 2.761-1.732 1.705-2.805 4.076-2.805 6.699s1.074 4.994 2.806 6.699l11.054 10.931c0.55 0.542 1.305 0.877 2.139 0.877s1.589-0.335 2.139-0.877l11.053-10.93c1.732-1.706 2.804-4.076 2.804-6.697s-1.073-4.992-2.804-6.697zM27.765 16.781l-11.052 10.93c-0.183 0.181-0.435 0.292-0.712 0.292s-0.529-0.112-0.713-0.292l-11.053-10.93c-1.366-1.348-2.213-3.22-2.213-5.29s0.846-3.942 2.212-5.289c1.371-1.346 3.25-2.176 5.323-2.176 1.959 0 3.745 0.741 5.093 1.959l1.349 1.214 1.356-1.22c1.341-1.212 3.128-1.954 5.088-1.954 2.073 0 3.952 0.83 5.323 2.175 1.366 1.347 2.212 3.219 2.212 5.289s-0.847 3.942-2.213 5.29zM9.252 7.026v0c-0.001 0-0.003 0-0.005 0-2.345 0-4.246 1.9-4.247 4.245v0c0 0.276 0.224 0.5 0.5 0.5s0.5-0.224 0.5-0.5v0c0.001-1.793 1.455-3.246 3.248-3.246 0.001 0 0.002 0 0.003 0h-0c0.007 0 0.015 0.001 0.023 0.001 0.276 0 0.5-0.224 0.5-0.5s-0.224-0.5-0.5-0.5c-0.008 0-0.015 0-0.023 0.001z"></path>
</svg>
<svg id="icon-key" width="32" height="32" viewBox="0 0 32 32" x="0" y="48">
<path d="M22 0c-5.523 0-10 4.477-10 10 0.008 1.309 0.269 2.555 0.737 3.695l-12.173 12.083c-0.346 0.295-0.564 0.732-0.564 1.219 0 0.001 0 0.002 0 0.003v3c0.025 1.095 0.905 1.975 1.998 2l3.002 0c0.001 0 0.001 0 0.002 0 0.489 0 0.927-0.218 1.222-0.562l1.435-1.438h2.341c1.105 0 2-0.895 2-2v-2h2c1.105 0 2-0.895 2-2v-2.344l2.37-2.37c1.074 0.445 2.32 0.707 3.627 0.714 5.526 0 10.003-4.477 10.003-10s-4.477-10-10-10zM22 18c-1.493-0.008-2.887-0.428-4.075-1.152l-0.309 0.364-3.030 3.030c-0.362 0.362-0.586 0.862-0.586 1.414v2.344h-2c-1.105 0-2 0.895-2 2v2h-2.343c-0.552 0-1.052 0.224-1.414 0.586l-1.416 1.414h-2.827v-2.849l13.134-13.113c-0.705-1.152-1.125-2.545-1.134-4.036 0-4.421 3.582-8.002 8-8.002s8 3.582 8 8c0 4.418-3.582 8-8 8zM27.817 8.239c-1.14-1.573-2.48-2.913-4.003-4.017-0.208-0.149-0.403-0.218-0.615-0.218-0.115 0-0.225 0.020-0.327 0.057-1.335 0.447-2.372 1.484-2.81 2.795-0.044 0.126-0.064 0.235-0.064 0.349 0 0 0 0.001 0 0.001 0.001 0.212 0.069 0.407 0.184 0.567 1.138 1.57 2.477 2.909 3.999 4.014 0.208 0.149 0.404 0.217 0.615 0.217 0.114 0 0.223-0.020 0.325-0.056 1.337-0.445 2.375-1.483 2.813-2.795 0.045-0.127 0.066-0.238 0.066-0.353-0.001-0.211-0.069-0.405-0.183-0.564zM24.817 11.011c-1.477-1.073-2.738-2.326-3.787-3.746 0.311-1.093 1.112-1.905 2.127-2.258 1.506 1.064 2.768 2.323 3.81 3.753-0.314 1.088-1.113 1.894-2.124 2.244z"></path>
</svg>
<svg id="icon-lab" width="32" height="32" viewBox="0 0 32 32" x="48" y="48">
<path d="M20.682 3.732c-0.452-0.453-1.078-0.732-1.768-0.732s-1.316 0.28-1.768 0.732l-1.412 1.413c-0.454 0.453-0.735 1.079-0.735 1.77 0 0.486 0.138 0.939 0.378 1.322l-13.583 5.427c-1.065 0.476-1.794 1.526-1.794 2.747 0 0.832 0.339 1.585 0.886 2.129l12.72 12.58c0.524 0.527 1.244 0.858 2.041 0.877l0.081 0c0.001 0 0.002 0 0.003 0 0.215 0 0.424-0.023 0.626-0.067 0.98-0.207 1.783-0.894 2.15-1.804l5.348-13.396c0.386 0.255 0.859 0.407 1.367 0.407 0.691 0 1.316-0.28 1.769-0.733l1.408-1.405c0.456-0.453 0.738-1.080 0.738-1.774 0-0.69-0.28-1.315-0.732-1.768zM16.658 29.367c-0.125 0.311-0.393 0.541-0.719 0.611-0.068 0.015-0.139 0.022-0.211 0.022-0.276 0-0.525-0.112-0.706-0.292l-12.728-12.588c-0.179-0.181-0.29-0.43-0.29-0.705 0-0.407 0.243-0.757 0.591-0.913l6.223-2.493c4.19 1.392 8.38 0.051 12.57 4.522zM26.992 13.58l-1.413 1.413c-0.090 0.090-0.215 0.146-0.354 0.146s-0.263-0.056-0.354-0.146l-1.767-1.766-1.434 3.588 0.121-0.3c-3.010-3-6.070-3.384-8.83-3.723-0.887-0.109-1.746-0.223-2.592-0.405l8.492-3.4-1.715-1.714c-0.090-0.090-0.146-0.215-0.146-0.354s0.056-0.263 0.146-0.354l1.414-1.415c0.090-0.090 0.215-0.146 0.354-0.146s0.263 0.056 0.354 0.146l7.724 7.726c0.089 0.090 0.144 0.214 0.144 0.351s-0.055 0.261-0.144 0.352zM16.5 21c1.381 0 2.5-1.119 2.5-2.5s-1.119-2.5-2.5-2.5c-1.381 0-2.5 1.119-2.5 2.5s1.119 2.5 2.5 2.5zM16.5 17c0.828 0 1.5 0.672 1.5 1.5s-0.672 1.5-1.5 1.5c-0.828 0-1.5-0.672-1.5-1.5s0.672-1.5 1.5-1.5zM29.5 0c-1.381 0-2.5 1.119-2.5 2.5s1.119 2.5 2.5 2.5c1.381 0 2.5-1.119 2.5-2.5s-1.119-2.5-2.5-2.5zM29.5 4c-0.828 0-1.5-0.672-1.5-1.5s0.672-1.5 1.5-1.5c0.828 0 1.5 0.672 1.5 1.5s-0.672 1.5-1.5 1.5zM8 17c0 1.105 0.895 2 2 2s2-0.895 2-2c0-1.105-0.895-2-2-2s-2 0.895-2 2zM10 16c0.552 0 1 0.448 1 1s-0.448 1-1 1c-0.552 0-1-0.448-1-1s0.448-1 1-1zM13 24c0.552 0 1-0.448 1-1s-0.448-1-1-1c-0.552 0-1 0.448-1 1s0.448 1 1 1zM29 7c-0.552 0-1 0.448-1 1s0.448 1 1 1c0.552 0 1-0.448 1-1s-0.448-1-1-1z"></path>
</svg>
<svg id="icon-like" width="32" height="32" viewBox="0 0 32 32" x="96" y="48">
<path d="M29.164 10.471c-1.249-0.328-4.189-0.324-8.488-0.437 0.166-0.823 0.26-1.77 0.26-2.738 0-0.193-0.004-0.385-0.011-0.575 0.001-3.561-2.612-6.721-4.925-6.721-1.644 0.011-2.976 1.334-3 2.974-0.022 2.016-0.644 5.495-4 7.258-0.246 0.13-0.95 0.477-1.053 0.523l0.053 0.045c-0.531-0.475-1.228-0.774-1.995-0.8l-3.005-0c-1.657 0-3 1.343-3 3v16c0 1.657 1.343 3 3 3h3c1.178-0.011 2.191-0.706 2.66-1.708 0.021-0.014 0.037-0.010 0.053-0.007l0.241 0.063c0.019 0.004 0.034 0.008 0.049 0.013 0.573 0.141 1.682 0.407 4.052 0.952 1.784 0.409 3.841 0.658 5.952 0.687l5.487 0c0.086 0.007 0.185 0.011 0.286 0.011 1.41 0 2.639-0.773 3.286-1.919 0.163-0.319 0.309-0.676 0.425-1.045 0.096-0.326 0.144-0.644 0.144-0.972 0-0.298-0.039-0.586-0.112-0.861 0.821-0.608 1.409-1.5 1.644-2.527 0.161-0.435 0.25-0.904 0.25-1.394s-0.090-0.958-0.254-1.39c0.727-0.696 1.213-1.651 1.344-2.716 0.034-0.206 0.052-0.416 0.052-0.631 0-0.645-0.163-1.253-0.449-1.784 0.518-0.561 0.837-1.319 0.864-2.151l0.011-0.215c0.008-0.132 0.014-0.213 0.014-0.5-0.076-1.67-1.247-3.046-2.81-3.431zM7 29c0 0.552-0.448 1-1 1h-3c-0.552 0-1-0.448-1-1v-16c0-0.552 0.448-1 1-1h3c0.552 0 1 0.448 1 1v16zM29.978 14.535c-0.021 0.494-0.228 1.465-1.978 1.465h-2c-0.276 0-0.5 0.224-0.5 0.5s0.224 0.5 0.5 0.5h1.938c0.036-0.003 0.078-0.005 0.121-0.005 0.837 0 1.516 0.679 1.516 1.516 0 0.118-0.013 0.233-0.039 0.343-0.011 1.177-0.972 2.136-2.159 2.146h-2.377c-0.276 0-0.5 0.224-0.5 0.5s0.224 0.5 0.5 0.5h1.969c1.687 0 1.54 1.287 1.3 2.055-0.319 1.010-0.514 1.945-2.64 1.945h-1.632c-0.276 0-0.5 0.224-0.5 0.5s0.224 0.5 0.5 0.5h1.569c0.010-0 0.021-0 0.032-0 0.584 0 1.058 0.474 1.058 1.058 0 0.125-0.022 0.245-0.062 0.357-0.085 0.276-0.18 0.514-0.291 0.743-0.305 0.507-0.881 0.862-1.541 0.862-0.094 0-0.186-0.007-0.275-0.021l-5.456 0.001c-1.98-0.032-3.889-0.263-5.729-0.673-3.966-0.922-4.185-0.997-4.445-1.071-0.451-0.064-0.801-0.425-0.846-0.877l-0.011-13.816c0.001-0.494 0.333-0.911 0.786-1.040 0.070-0.026 0.154-0.052 0.214-0.077 4.568-1.892 5.959-6.040 6-9.446 0-0.552 0.448-1 1-1 1.058 0 2.926 2.122 2.926 4.748 0.010 0.179 0.015 0.389 0.015 0.599 0 1.68-0.346 3.279-0.971 4.73 10.030-0.078 9.96 0.065 10.843 0.297 0.685 0.163 1.187 0.77 1.187 1.494 0 0.013-0 0.026-0 0.039 0 0.341-0.010 0.292-0.022 0.627zM4.5 26c-0.828 0-1.5 0.672-1.5 1.5s0.672 1.5 1.5 1.5c0.828 0 1.5-0.672 1.5-1.5s-0.672-1.5-1.5-1.5zM4.5 28c-0.276 0-0.5-0.224-0.5-0.5s0.224-0.5 0.5-0.5c0.276 0 0.5 0.224 0.5 0.5s-0.224 0.5-0.5 0.5z"></path>
</svg>
<svg id="icon-location" width="24" height="32" viewBox="0 0 24 32" x="144" y="48">
<path d="M12 17.746c3.314 0 6-2.686 6-6s-2.686-6-6-6c-3.314 0-6 2.686-6 6 0.003 3.312 2.688 5.997 6 6zM12 6.746c2.761 0 5 2.239 5 5s-2.239 5-5 5c-2.761 0-5-2.239-5-5s2.239-5 5-5zM12 0c-0.009-0-0.019-0-0.029-0-6.611 0-11.971 5.36-11.971 11.971 0 0.010 0 0.020 0 0.031 0 6.998 6 14.159 10.376 19.191 0.398 0.444 0.953 0.741 1.577 0.804l0.086 0.001c0.634-0.064 1.189-0.361 1.585-0.803 4.376-5.032 10.376-12.195 10.376-19.195 0-0.009 0-0.019 0-0.029 0-6.611-5.36-11.971-11.971-11.971-0.010 0-0.020 0-0.031 0zM12.116 29.883c-0.040 0.034-0.084 0.067-0.13 0.097-0.044-0.047-0.086-0.091-0.133-0.13-3.665-4.219-9.853-11.335-9.853-17.85 0-5.523 4.477-10 10-10s10 4.477 10 10c0 6.515-6.186 13.631-9.884 17.883z"></path>
</svg>
<svg id="icon-lock" width="24" height="32" viewBox="0 0 24 32" x="192" y="48">
<path d="M21 13v-4c0-4.971-4.029-9-9-9s-9 4.029-9 9v4c-1.657 0-3 1.343-3 3v7c0 4.971 4.029 9 9 9h6c4.971 0 9-4.029 9-9v-7c0-1.657-1.343-3-3-3zM5 9c0-3.866 3.134-7 7-7s7 3.134 7 7v4h-2v-4c0-2.761-2.239-5-5-5s-5 2.239-5 5v4h-2v-4zM16 9v4h-8v-4c0-2.209 1.791-4 4-4s4 1.791 4 4zM22 19v4c-0.005 3.864-3.136 6.995-7 7h-6c-3.864-0.005-6.995-3.136-7-7v-7c0-0.552 0.448-1 1-1h18c0.552 0 1 0.448 1 1v3zM12 19c-1.105 0-2 0.895-2 2 0.109 0.989 0.344 1.893 0.691 2.739 0.073 0.625 0.616 1.166 1.301 1.26 0.789 0.001 1.069-0.578 1.342-1.316 0.325-0.783 0.56-1.691 0.662-2.639 0.004-1.148-0.892-2.044-1.996-2.044z"></path>
</svg>
<svg id="icon-mail" width="32" height="32" viewBox="0 0 32 32" x="240" y="48">
<path d="M28 5.5h-24c-2.209 0-4 1.791-4 4v13c0 2.209 1.791 4 4 4h24c2.209 0 4-1.791 4-4v-13c0-2.209-1.791-4-4-4zM2 10.75l7 5.25-7 5.25v-10.5zM30 22.5c0 1.105-0.895 2-2 2h-24c-1.105 0-2-0.895-2-2l7.832-5.875 4.368 3.275c0.495 0.375 1.121 0.6 1.8 0.6s1.305-0.225 1.808-0.605l4.36-3.272 7.832 5.877zM30 21.25l-7-5.25 7-5.25v10.5zM17.2 19.1c-0.33 0.25-0.747 0.4-1.2 0.4s-0.87-0.15-1.205-0.404l-12.795-9.596c0-1.105 0.895-2 2-2h24c1.105 0 2 0.895 2 2z"></path>
</svg>
<svg id="icon-megaphone" width="32" height="32" viewBox="0 0 32 32" x="288" y="48">
<path d="M25 0c-2.053 0-3.665 1.41-4.824 3.586l-0.022-0.012c-1.681 3.293-4.185 5.426-6.928 5.426h-9.226c-2.243 0-4 2.2-4 5s1.757 5 4 5c1.105 0 2 0.895 2 2v9c0 1.105 0.895 2 2 2h4c1.105 0 2-0.895 2-2v-1c0-1-1-1.447-1-2v-7c0-0.023 0.016-0.039 0.018-0.062 0.010-0.146 0.050-0.281 0.115-0.4 0.016-0.028 0.036-0.057 0.057-0.084 0.078-0.117 0.178-0.215 0.295-0.289 0.010-0.002 0.012-0.012 0.018-0.016s0.007 0 0.011 0c0.076-0.034 0.165-0.062 0.258-0.079 2.532 0.266 4.817 2.299 6.384 5.372l0.027-0.012c1.157 2.165 2.767 3.571 4.817 3.571 4.6 0 7-7.043 7-14s-2.4-14-7-14zM20 14c0.001-1.058 0.060-2.101 0.176-3.127l2.824 0.127c1.105 0 2 1.344 2 3s-0.895 3-2 3h-2.836c-0.104-0.899-0.163-1.942-0.164-2.999zM2 14c0-1.656 0.9-3 2-3h7.014c-0.633 0.822-1.014 1.867-1.014 3s0.381 2.178 1.023 3.012l-7.023-0.012c-1.1 0-2-1.342-2-3zM12 30h-4v-9c0-0.002 0-0.004 0-0.006 0-0.735-0.199-1.423-0.547-2.013l0.71 0.019v0.012h3.008c-0.107 0.294-0.169 0.633-0.171 0.987v7.001c0.033 0.776 0.355 1.472 0.86 1.986 0.043 0.053 0.095 0.108 0.14 0.166v0.848zM13.231 17.012h-0.231v-0.012c-1.1 0-2-1.342-2-3s0.9-3 2-3h0.226c2.002-0.044 3.819-0.801 5.215-2.026-0.285 1.519-0.442 3.257-0.442 5.032s0.158 3.514 0.459 5.202c-1.413-1.395-3.23-2.152-5.223-2.197zM25 26c-2.018 0-3.75-2.871-4.541-7h2.541c2.243 0 4-2.195 4-5s-1.757-5-4-5h-2.541c0.791-4.127 2.523-7 4.541-7 2.762 0 5 5.373 5 12s-2.238 12-5 12z"></path>
</svg>
<svg id="icon-music" width="32" height="32" viewBox="0 0 32 32" x="336" y="48">
<path d="M31.285 0.469c-0.344-0.292-0.794-0.469-1.285-0.469-0 0-0 0-0 0s-0.001 0-0.002 0c-0.122 0-0.241 0.011-0.357 0.033l-16.988 2.998c-0.945 0.171-1.653 0.987-1.653 1.969v17.17c-1.031-0.732-2.315-1.171-3.701-1.171-0.035 0-0.070 0-0.104 0.001-0.9 0.002-1.77 0.154-2.58 0.433-1.77 0.557-3.242 1.805-4.096 3.429-0.333 0.657-0.517 1.388-0.517 2.162 0 0.582 0.104 1.141 0.296 1.657 0.888 1.965 2.861 3.331 5.153 3.331 0.121 0 0.242-0.004 0.361-0.011 0.889-0 1.758-0.153 2.568-0.432 1.772-0.554 3.246-1.801 4.101-3.425 0.318-0.653 0.496-1.374 0.502-2.136l0.019-0.002v-16.004c0.123-0 0.243-0.011 0.361-0.031l16.639-2.938v12.139c-1.031-0.732-2.315-1.171-3.701-1.171-0.035 0-0.069 0-0.104 0.001-0.9 0.002-1.77 0.154-2.58 0.433-1.771 0.556-3.242 1.805-4.096 3.429-0.333 0.657-0.517 1.388-0.517 2.162 0 0.582 0.104 1.141 0.296 1.657 0.888 1.965 2.86 3.331 5.152 3.331 0.123 0 0.246-0.004 0.368-0.012 0.889-0 1.758-0.153 2.568-0.432 1.772-0.554 3.246-1.801 4.101-3.425 0.318-0.653 0.496-1.374 0.502-2.136l0.012-0.002v-21.004c-0-0.613-0.277-1.162-0.712-1.529zM7.685 29.688c-2.4 0.8-4.873 0.017-5.53-1.741s0.751-3.834 3.147-4.632 4.873-0.020 5.529 1.74-0.747 3.834-3.143 4.633zM26.65 26.688c-2.4 0.8-4.874 0.017-5.531-1.741s0.751-3.834 3.147-4.632 4.874-0.020 5.53 1.74-0.747 3.834-3.143 4.633zM29.96 5l-17 3v-3l17-3v3z"></path>
</svg>
<svg id="icon-news" width="32" height="32" viewBox="0 0 32 32" x="384" y="48">
<path d="M29 0h-22c-1.657 0-3 1.343-3 3v2h-1c-1.657 0-3 1.343-3 3v20c0 2.209 1.791 4 4 4h24c2.209 0 4-1.791 4-4v-25c0-1.657-1.343-3-3-3zM30 28c0 1.105-0.895 2-2 2h-24c-1.105 0-2-0.895-2-2v-20c0-0.552 0.448-1 1-1h1v20c0 0.552 0.448 1 1 1s1-0.448 1-1v-24c0-0.552 0.448-1 1-1h22c0.552 0 1 0.448 1 1v25zM19.5 13.006h8c0.276 0 0.5-0.224 0.5-0.5s-0.224-0.5-0.5-0.5h-8c-0.276 0-0.5 0.224-0.5 0.5s0.224 0.5 0.5 0.5zM19.5 10.006h8c0.276 0 0.5-0.224 0.5-0.5s-0.224-0.5-0.5-0.5h-8c-0.276 0-0.5 0.224-0.5 0.5s0.224 0.5 0.5 0.5zM19.5 7.006h8c0.276 0 0.5-0.224 0.5-0.5s-0.224-0.5-0.5-0.5h-8c-0.276 0-0.5 0.224-0.5 0.5s0.224 0.5 0.5 0.5zM16.5 27.006h-8c-0.276 0-0.5 0.224-0.5 0.5s0.224 0.5 0.5 0.5h8c0.278 0 0.503-0.225 0.503-0.503s-0.225-0.503-0.503-0.503zM16.5 24.006h-8c-0.276 0-0.5 0.224-0.5 0.5s0.224 0.5 0.5 0.5h8c0.278 0 0.503-0.225 0.503-0.503s-0.225-0.503-0.503-0.503zM16.5 21.006h-8c-0.276 0-0.5 0.224-0.5 0.5s0.224 0.5 0.5 0.5h8c0.278 0 0.503-0.225 0.503-0.503s-0.225-0.503-0.503-0.503zM27.5 27.006h-8c-0.276 0-0.5 0.224-0.5 0.5s0.224 0.5 0.5 0.5h8c0.278 0 0.503-0.225 0.503-0.503s-0.225-0.503-0.503-0.503zM27.5 24.006h-8c-0.276 0-0.5 0.224-0.5 0.5s0.224 0.5 0.5 0.5h8c0.278 0 0.503-0.225 0.503-0.503s-0.225-0.503-0.503-0.503zM27.5 21.006h-8c-0.276 0-0.5 0.224-0.5 0.5s0.224 0.5 0.5 0.5h8c0.278 0 0.503-0.225 0.503-0.503s-0.225-0.503-0.503-0.503zM27.5 15.006h-19c-0.276 0-0.5 0.224-0.5 0.5s0.224 0.5 0.5 0.5h19c0.276 0 0.5-0.224 0.5-0.501s-0.224-0.501-0.5-0.501zM27.5 18.006h-19c-0.276 0-0.5 0.224-0.5 0.5s0.224 0.5 0.5 0.5h19c0.278 0 0.503-0.225 0.503-0.503s-0.225-0.503-0.503-0.503zM9 13h7c0.552 0 1-0.448 1-1v-7c0-0.552-0.448-1-1-1h-7c-0.552 0-1 0.448-1 1v7c0 0.552 0.448 1 1 1zM10 6h5v5h-5v-5z"></path>
</svg>
<svg id="icon-note" width="32" height="32" viewBox="0 0 32 32" x="432" y="48">
<path d="M31.414 7.586l-6-6c-0.362-0.362-0.862-0.586-1.414-0.586h-21c-1.657 0-3 1.343-3 3v24c0 1.657 1.343 3 3 3h26c1.657 0 3-1.343 3-3v-19c-0-0.552-0.224-1.052-0.586-1.414zM30 28c0 0.552-0.448 1-1 1h-26c-0.552 0-1-0.448-1-1v-24c0-0.552 0.448-1 1-1h20v4c0 1.657 1.343 3 3 3h4v18zM27 9h-1c-1.105 0-2-0.895-2-2v0-4l6 6h-3zM15.5 8h5c0.276 0 0.5-0.224 0.5-0.5s-0.224-0.5-0.5-0.5h-5c-0.276 0-0.5 0.224-0.5 0.5s0.224 0.5 0.5 0.5zM15.5 11h5c0.276 0 0.5-0.224 0.5-0.5s-0.224-0.5-0.5-0.5h-5c-0.276 0-0.5 0.224-0.5 0.5s0.224 0.5 0.5 0.5zM15 13.5c0 0.276 0.224 0.5 0.5 0.5h12c0.276 0 0.5-0.224 0.5-0.5s-0.224-0.5-0.5-0.5h-12c-0.276 0-0.5 0.224-0.5 0.5zM27.5 19h-23c-0.276 0-0.5 0.224-0.5 0.5s0.224 0.5 0.5 0.5h23c0.276 0 0.5-0.224 0.5-0.5s-0.224-0.5-0.5-0.5zM27.5 22h-23c-0.276 0-0.5 0.224-0.5 0.5s0.224 0.5 0.5 0.5h23c0.276 0 0.5-0.224 0.5-0.5s-0.224-0.5-0.5-0.5zM27.5 25h-23c-0.276 0-0.5 0.224-0.5 0.5s0.224 0.5 0.5 0.5h23c0.276 0 0.5-0.224 0.5-0.5s-0.224-0.5-0.5-0.5zM27.5 16h-23c-0.276 0-0.5 0.224-0.5 0.5s0.224 0.5 0.5 0.5h23c0.276 0 0.5-0.224 0.5-0.5s-0.224-0.5-0.5-0.5zM5 14h7c0.552 0 1-0.448 1-1v-6c0-0.552-0.448-1-1-1h-7c-0.552 0-1 0.448-1 1v6c0 0.552 0.448 1 1 1zM6 8h5v4h-5v-4z"></path>
</svg>
<svg id="icon-paperplane" width="32" height="32" viewBox="0 0 32 32" x="480" y="48">
<path d="M31.543 0.16c-0.154-0.101-0.342-0.161-0.544-0.161-0.207 0-0.4 0.063-0.56 0.171l-29.996 19.998c-0.27 0.182-0.445 0.486-0.445 0.832 0 0.418 0.257 0.777 0.622 0.926l7.831 3.133 3.679 6.437c0.175 0.299 0.493 0.497 0.858 0.5h0.012c0 0 0 0 0 0 0.362 0 0.68-0.193 0.855-0.482l2.079-3.467 9.694 3.877c0.109 0.047 0.237 0.075 0.371 0.076 0.494-0 0.905-0.359 0.985-0.83l5.001-30.006c0.009-0.049 0.014-0.106 0.014-0.164 0-0.35-0.18-0.659-0.453-0.837zM3.137 20.777l23.175-15.451-16.85 18.037c-0.075-0.056-0.161-0.11-0.251-0.158zM10.19 24.066c-0.003-0.003-0.005-0.006-0.007-0.009l18.942-20.276-16.149 25.162zM25.218 29.609l-8.541-3.416c-0.185-0.069-0.398-0.112-0.621-0.119l13.144-20.389z"></path>
</svg>
<svg id="icon-params" width="32" height="32" viewBox="0 0 32 32" x="528" y="48">
<path d="M8 6.022v-3.022c0-1.657-1.343-3-3-3s-3 1.343-3 3v3.022c-1.219 0.913-2 2.354-2 3.978s0.781 3.064 1.987 3.968l0.013 15.032c0 1.657 1.343 3 3 3s3-1.343 3-3v-15.023c1.219-0.913 2-2.354 2-3.977s-0.781-3.064-1.987-3.968zM4 3c0-0.552 0.448-1 1-1s1 0.448 1 1v2.1c-0.301-0.064-0.646-0.1-1-0.1s-0.699 0.036-1.033 0.106l0.033-2.106zM6 29c0 0.552-0.448 1-1 1s-1-0.448-1-1v-14.1c0.301 0.065 0.646 0.102 1 0.102s0.699-0.037 1.032-0.108l-0.032 14.106zM7.865 10.84c-0.015 0.053-0.030 0.105-0.049 0.158-0.098 0.281-0.225 0.524-0.383 0.745 0.006-0.003-0.004 0.001-0.008 0.007-0.177 0.24-0.38 0.447-0.609 0.622l-0.017 0.013c-0.23 0.175-0.494 0.32-0.779 0.423-0.318 0.123-0.661 0.191-1.021 0.191s-0.703-0.068-1.019-0.191c-0.287-0.103-0.551-0.249-0.788-0.429l-0.003-0.003c-0.236-0.18-0.439-0.387-0.61-0.619-0.006-0.014-0.016-0.018-0.020-0.024-0.15-0.211-0.277-0.454-0.369-0.713-0.025-0.074-0.039-0.126-0.055-0.179-0.085-0.251-0.135-0.54-0.135-0.841s0.049-0.59 0.14-0.86c0.010-0.033 0.024-0.086 0.043-0.137 0.099-0.282 0.227-0.526 0.384-0.747-0.006 0.003 0.004-0.001 0.008-0.007 0.177-0.24 0.38-0.446 0.609-0.622 0.011-0.008 0.014-0.011 0.017-0.013 0.23-0.173 0.494-0.318 0.779-0.422 0.318-0.123 0.662-0.191 1.021-0.191s0.703 0.068 1.019 0.191c0.286 0.104 0.551 0.249 0.789 0.428-0.005-0.003-0.002-0 0.002 0.002 0.236 0.181 0.439 0.387 0.61 0.619 0.006 0.014 0.016 0.018 0.020 0.024 0.151 0.212 0.279 0.456 0.371 0.717 0.025 0.072 0.040 0.121 0.055 0.177 0.084 0.249 0.133 0.537 0.133 0.835 0 0.302-0.050 0.592-0.142 0.864zM30 6.022v-3.022c0-1.657-1.343-3-3-3s-3 1.343-3 3v3.022c-1.219 0.913-2 2.354-2 3.978s0.781 3.064 1.987 3.968l0.013 15.032c0 1.657 1.343 3 3 3s3-1.343 3-3v-15.023c1.219-0.913 2-2.354 2-3.977s-0.781-3.064-1.987-3.968zM26 3c0-0.552 0.448-1 1-1s1 0.448 1 1v2.1c-0.301-0.064-0.646-0.1-1-0.1s-0.699 0.036-1.033 0.106l0.033-2.106zM28 29c0 0.552-0.448 1-1 1s-1-0.448-1-1v-14.1c0.301 0.065 0.646 0.102 1 0.102s0.699-0.037 1.032-0.108l-0.032 14.106zM29.865 10.84c-0.015 0.053-0.030 0.105-0.049 0.158-0.098 0.281-0.225 0.524-0.383 0.745 0.006-0.003-0.004 0.001-0.008 0.007-0.177 0.24-0.38 0.447-0.609 0.622l-0.017 0.013c-0.23 0.175-0.494 0.32-0.779 0.423-0.318 0.123-0.661 0.191-1.021 0.191s-0.703-0.068-1.019-0.191c-0.287-0.103-0.551-0.249-0.788-0.429l-0.003-0.003c-0.236-0.18-0.439-0.387-0.61-0.619-0.010-0.013-0.015-0.018-0.018-0.024-0.153-0.212-0.281-0.456-0.372-0.716-0.025-0.073-0.040-0.125-0.055-0.178-0.086-0.251-0.135-0.54-0.135-0.841s0.049-0.59 0.141-0.86c0.009-0.033 0.024-0.086 0.043-0.137 0.098-0.282 0.226-0.526 0.384-0.747-0.002 0.003 0.003-0.002 0.007-0.007 0.177-0.24 0.38-0.446 0.609-0.621 0.011-0.008 0.014-0.011 0.017-0.013 0.23-0.173 0.494-0.318 0.779-0.422 0.318-0.123 0.662-0.191 1.021-0.191s0.703 0.068 1.019 0.191c0.286 0.104 0.551 0.249 0.789 0.428-0.005-0.003-0.002-0 0.002 0.002 0.236 0.181 0.439 0.387 0.61 0.619 0.006 0.014 0.016 0.018 0.020 0.024 0.151 0.212 0.279 0.456 0.371 0.717 0.025 0.072 0.040 0.121 0.055 0.177 0.086 0.251 0.135 0.54 0.135 0.841s-0.049 0.59-0.141 0.86zM19 18.022v-15.022c0-1.657-1.343-3-3-3s-3 1.343-3 3v15.022c-1.219 0.913-2 2.354-2 3.977s0.781 3.064 1.987 3.968l0.013 3.032c0 1.657 1.343 3 3 3s3-1.343 3-3v-3.023c1.219-0.913 2-2.354 2-3.977s-0.781-3.064-1.987-3.968zM15 3c0-0.552 0.448-1 1-1s1 0.448 1 1v14.1c-0.301-0.064-0.646-0.1-1-0.1s-0.699 0.036-1.033 0.106l0.033-14.106zM17 29c0 0.552-0.448 1-1 1s-1-0.448-1-1v-2.1c0.301 0.065 0.646 0.102 1 0.102s0.699-0.037 1.032-0.108l-0.032 2.106zM18.865 22.84c-0.015 0.053-0.030 0.105-0.049 0.158-0.098 0.281-0.225 0.524-0.383 0.745 0.006-0.003-0.004 0.001-0.008 0.007-0.177 0.24-0.38 0.447-0.609 0.622l-0.017 0.013c-0.23 0.175-0.494 0.32-0.779 0.423-0.318 0.123-0.661 0.191-1.021 0.191s-0.703-0.068-1.019-0.191c-0.287-0.103-0.551-0.249-0.788-0.429l-0.003-0.003c-0.236-0.18-0.439-0.387-0.61-0.619-0.010-0.013-0.015-0.018-0.018-0.024-0.153-0.212-0.281-0.456-0.372-0.716-0.025-0.073-0.040-0.125-0.055-0.178-0.086-0.251-0.135-0.54-0.135-0.841s0.049-0.59 0.141-0.86c0.009-0.033 0.024-0.086 0.043-0.137 0.098-0.282 0.226-0.526 0.384-0.747-0.002 0.003 0.003-0.002 0.007-0.007 0.177-0.24 0.38-0.446 0.609-0.621 0.011-0.008 0.014-0.011 0.017-0.013 0.23-0.173 0.494-0.318 0.779-0.422 0.318-0.123 0.662-0.191 1.021-0.191s0.703 0.068 1.019 0.191c0.286 0.105 0.551 0.249 0.789 0.428-0.005-0.003-0.002-0 0.002 0.002 0.236 0.181 0.439 0.387 0.61 0.619 0.006 0.014 0.016 0.018 0.020 0.024 0.151 0.212 0.279 0.456 0.371 0.717 0.025 0.072 0.040 0.121 0.055 0.177 0.086 0.251 0.135 0.54 0.135 0.841s-0.049 0.59-0.141 0.86z"></path>
</svg>
<svg id="icon-pen" width="32" height="32" viewBox="0 0 32 32" x="576" y="48">
<path d="M29.4 2.58c-1.514-1.553-3.612-2.531-5.938-2.58-0.034-0-0.063-0.001-0.092-0.001-1.787 0-3.407 0.717-4.587 1.878l-4.866 4.899c-0.015 0.014-0.032 0.024-0.047 0.038s-0.012 0.019-0.020 0.027v0l-10.33 10.408c-0.462 0.462-0.812 1.035-1.006 1.677l-2.356 8.536c-0.073 0.297-0.129 0.652-0.157 1.014-0.001 1.956 1.566 3.523 3.499 3.523 0.43-0.035 0.825-0.101 1.207-0.198l8.428-2.218c0.67-0.203 1.243-0.553 1.705-1.016l15.262-15.382c2.782-2.78 2.469-7.436-0.702-10.606zM16.015 23.8c-0.099-0.972-0.354-1.862-0.74-2.677l9.475-9.404c0.193 0.504 0.304 1.087 0.304 1.696 0 1.276-0.49 2.438-1.293 3.307-0.005 0.005-0.015 0.009-0.023 0.017l0.013 0.013-7.728 7.789c0.001-0.248 0.013-0.492-0.009-0.741zM14.794 20.26c-0.799-1.379-1.945-2.478-3.321-3.199l9.487-9.553c1.475 0.661 2.646 1.778 3.36 3.169zM10.486 16.567c-0.846-0.359-1.829-0.578-2.859-0.6l7.691-7.762c0.85-0.778 1.988-1.255 3.236-1.255 0.482 0 0.947 0.071 1.386 0.203zM4.168 29.877c-0.189 0.052-0.42 0.096-0.655 0.125-0.848-0.004-1.513-0.673-1.513-1.498 0-0.001 0-0.003 0-0.004 0.026-0.219 0.062-0.41 0.107-0.597l1.045-3.779c2.615 0.004 4.734 2.125 4.734 4.741 0 0.012-0 0.023-0 0.035zM8.874 28.641c-0.041-1.508-0.673-2.861-1.673-3.84-0.966-0.986-2.285-1.62-3.751-1.7l0.986-3.609c0.088-0.264 0.222-0.492 0.392-0.686 2.004-1.434 5.089-1.010 7.233 1.134 2.266 2.267 2.617 5.586 0.871 7.569-0.102 0.058-0.221 0.111-0.345 0.153zM28.692 11.777l-1.684 1.7c0-0.226 0.027-0.444 0.007-0.674-0.502-4.33-4.072-7.683-8.457-7.84l1.642-1.67c0.819-0.8 1.94-1.294 3.177-1.294 0.025 0 0.051 0 0.076 0.001 3.41 0.17 6.161 2.792 6.532 6.132 0.014 0.151 0.020 0.29 0.020 0.431 0 1.251-0.501 2.385-1.314 3.211z"></path>
</svg>
<svg id="icon-phone" width="22" height="32" viewBox="0 0 22 32" x="624" y="48">
<path d="M19 0h-16c-1.657 0-3 1.343-3 3v26c0 1.657 1.343 3 3 3h16c1.657 0 3-1.343 3-3v-26c0-1.657-1.343-3-3-3zM20 29c0 0.552-0.448 1-1 1h-16c-0.552 0-1-0.448-1-1v-2h18v2zM20 26h-18v-20h18v20zM20 5h-18v-2c0-0.552 0.448-1 1-1h16c0.552 0 1 0.448 1 1v2zM13 3.5c0 0.276-0.224 0.5-0.5 0.5h-3c-0.276 0-0.5-0.224-0.5-0.5v0c0-0.276 0.224-0.5 0.5-0.5h3c0.276 0 0.5 0.224 0.5 0.5v0zM12 28.5c0 0.276-0.224 0.5-0.5 0.5h-1c-0.276 0-0.5-0.224-0.5-0.5v0c0-0.276 0.224-0.5 0.5-0.5h1c0.276 0 0.5 0.224 0.5 0.5v0z"></path>
</svg>
<svg id="icon-photo" width="30" height="32" viewBox="0 0 30 32" x="672" y="48">
<path d="M26 0h-22c-2.209 0-4 1.791-4 4v24c0 2.209 1.791 4 4 4h22c2.209 0 4-1.791 4-4v-24c0-2.209-1.791-4-4-4zM28 28c0 1.105-0.895 2-2 2h-22c-1.105 0-2-0.895-2-2v-24c0-1.105 0.895-2 2-2h22c1.105 0 2 0.895 2 2v24zM25 4h-20c-0.552 0-1 0.448-1 1v18c0 0.552 0.448 1 1 1h20c0.552 0 1-0.448 1-1v-18c0-0.552-0.448-1-1-1zM25 5v13.869l-3.25-3.53c-0.184-0.208-0.452-0.339-0.75-0.339s-0.566 0.13-0.749 0.338l-2.601 2.951-7.9-8.95c-0.184-0.208-0.452-0.339-0.75-0.339s-0.566 0.13-0.749 0.338l-3.251 3.749v-8.087h20zM5 14.6l4-4.6 8.646 9.801 2.762 3.2h-15.408v-8.4zM21.741 23l-3.427-3.955 2.686-3.045 4 4.379v2.621h-3.259zM19 13c1.657 0 3-1.343 3-3s-1.343-3-3-3c-1.657 0-3 1.343-3 3s1.343 3 3 3zM19 8c1.105 0 2 0.895 2 2s-0.895 2-2 2c-1.105 0-2-0.895-2-2s0.895-2 2-2z"></path>
</svg>
<svg id="icon-search" width="32" height="32" viewBox="0 0 32 32" x="720" y="48">
<path d="M20 0c-0.001 0-0.001 0-0.002 0-6.624 0-11.993 5.369-11.993 11.993 0 2.054 0.516 3.988 1.427 5.678l-8.375 8.278 0.007 0.007c-0.66 0.641-1.069 1.537-1.069 2.529 0 1.947 1.579 3.526 3.526 3.526 0.992 0 1.887-0.409 2.528-1.068l0.001-0.001 8.341-8.339c1.628 0.88 3.563 1.397 5.619 1.397 6.627 0 12-5.373 12-12s-5.373-12-12-12c-0.003 0-0.007 0-0.010 0zM4.8 29.692c-0.321 0.335-0.772 0.543-1.271 0.543-0.971 0-1.759-0.788-1.759-1.759 0-0.499 0.208-0.95 0.542-1.27l-0.012-0.006 8.066-8.066c0.715 0.959 1.538 1.783 2.463 2.478zM20 22c-5.523 0-10-4.477-10-10s4.477-10 10-10c5.523 0 10 4.477 10 10s-4.477 10-10 10zM20 5c-3.866 0-7 3.134-7 7 0 0.276 0.224 0.5 0.5 0.5s0.5-0.224 0.5-0.5c0-3.314 2.686-6 6-6 0.276 0 0.5-0.224 0.5-0.5s-0.224-0.5-0.5-0.5z"></path>
</svg>
<svg id="icon-settings" width="32" height="32" viewBox="0 0 32 32" x="0" y="96">
<path d="M30.392 12.679l-3.066-0.615c-0.183-0.522-0.364-0.947-0.568-1.36l1.767-2.529c0.21-0.312 0.336-0.696 0.336-1.11 0-0.552-0.224-1.053-0.586-1.414l-1.923-1.923c-0.362-0.362-0.862-0.586-1.414-0.586-0.414 0-0.798 0.126-1.117 0.341l-2.593 1.73c-0.343-0.173-0.768-0.354-1.206-0.51l-0.698-3.092c-0.188-0.925-0.995-1.611-1.962-1.611-0.001 0-0.002 0-0.002 0h-2.72c-0.966 0-1.772 0.685-1.959 1.595l-0.616 3.079c-0.522 0.183-0.948 0.363-1.36 0.567l-2.53-1.766c-0.312-0.211-0.696-0.336-1.11-0.336-0.552 0-1.053 0.224-1.414 0.586l-1.923 1.923c-0.362 0.362-0.586 0.862-0.586 1.414 0 0.414 0.126 0.798 0.341 1.117l1.73 2.593c-0.173 0.342-0.354 0.768-0.51 1.206l-3.092 0.698c-0.925 0.188-1.611 0.995-1.611 1.962 0 0.001 0 0.002 0 0.002v2.72c0 0.966 0.685 1.772 1.595 1.959l3.079 0.617c0.183 0.522 0.364 0.947 0.568 1.36l-1.767 2.529c-0.211 0.312-0.336 0.696-0.336 1.11 0 0.552 0.224 1.052 0.586 1.414l1.923 1.923c0.362 0.362 0.862 0.586 1.414 0.586 0.414 0 0.798-0.125 1.117-0.341l2.593-1.73c0.342 0.173 0.768 0.354 1.206 0.51l0.698 3.092c0.188 0.925 0.995 1.611 1.962 1.611 0.001 0 0.002 0 0.002 0h2.72c0.966-0 1.772-0.685 1.959-1.595l0.617-3.079c0.522-0.183 0.947-0.364 1.36-0.568l2.529 1.767c0.312 0.21 0.696 0.336 1.11 0.336 0.552 0 1.052-0.224 1.414-0.586l1.923-1.923c0.362-0.362 0.586-0.862 0.586-1.414 0-0.414-0.125-0.798-0.341-1.117l-1.73-2.593c0.173-0.343 0.354-0.768 0.51-1.206l3.092-0.698c0.925-0.188 1.611-0.995 1.611-1.962 0-0.001 0-0.002 0-0.002v-2.72c-0-0.966-0.685-1.772-1.595-1.959zM26.934 17.974c-0.702 0.141-1.263 0.635-1.496 1.286-0.157 0.449-0.308 0.805-0.479 1.149-0.1 0.196-0.174 0.496-0.174 0.813 0 0.413 0.125 0.798 0.34 1.117l1.73 2.593-1.924 1.923-2.6-1.735c-0.312-0.211-0.696-0.336-1.11-0.336-0.317 0-0.616 0.074-0.882 0.204-0.273 0.139-0.629 0.29-0.994 0.422-0.735 0.259-1.23 0.82-1.368 1.509l-0.619 3.082h-2.72l-0.614-3.066c-0.141-0.702-0.635-1.263-1.286-1.496-0.448-0.157-0.803-0.308-1.147-0.478-0.197-0.1-0.497-0.174-0.814-0.174-0.414 0-0.798 0.126-1.117 0.341l-2.593 1.73-1.923-1.923 1.735-2.6c0.211-0.312 0.336-0.696 0.336-1.11 0-0.317-0.074-0.616-0.204-0.882-0.139-0.273-0.29-0.629-0.422-0.994-0.259-0.735-0.82-1.23-1.509-1.368l-3.082-0.62v-2.72l3.066-0.614c0.702-0.141 1.263-0.635 1.496-1.286 0.157-0.449 0.308-0.805 0.479-1.149 0.1-0.196 0.174-0.496 0.174-0.813 0-0.413-0.125-0.798-0.34-1.117l-1.73-2.593 1.923-1.924 2.6 1.735c0.312 0.211 0.696 0.337 1.11 0.337 0.317 0 0.616-0.074 0.882-0.205 0.274-0.139 0.629-0.291 0.993-0.422 0.734-0.259 1.229-0.819 1.368-1.509l0.62-3.081h2.72l0.614 3.066c0.141 0.702 0.635 1.263 1.286 1.496 0.449 0.157 0.804 0.308 1.148 0.478 0.196 0.1 0.496 0.174 0.813 0.174 0.413 0 0.798-0.125 1.117-0.34l2.593-1.73 1.924 1.924-1.735 2.6c-0.211 0.312-0.336 0.696-0.336 1.11 0 0.317 0.074 0.616 0.204 0.882 0.139 0.274 0.291 0.629 0.422 0.994 0.259 0.735 0.82 1.229 1.509 1.368l3.081 0.619v2.72zM16 9c-3.866 0-7 3.134-7 7s3.134 7 7 7c3.866 0 7-3.134 7-7s-3.134-7-7-7zM16 22.125c-3.383 0-6.125-2.742-6.125-6.125s2.742-6.125 6.125-6.125c3.383 0 6.125 2.742 6.125 6.125s-2.742 6.124-6.125 6.125zM16 12c-2.209 0-4 1.791-4 4s1.791 4 4 4c2.209 0 4-1.791 4-4s-1.791-4-4-4zM16 19c-1.657 0-3-1.343-3-3s1.343-3 3-3c1.657 0 3 1.343 3 3s-1.343 3-3 3z"></path>
</svg>
<svg id="icon-shop" width="32" height="32" viewBox="0 0 32 32" x="48" y="96">
<path d="M31.4 11.2l-3-4c-0.122-0.157-0.253-0.295-0.396-0.42l-0.004-4.78c0-1.105-0.895-2-2-2h-20c-1.105 0-2 0.895-2 2v4.78c-0.147 0.127-0.278 0.265-0.395 0.414l-3.005 4.006c-0.374 0.496-0.599 1.121-0.6 1.8v1c0 1.657 1.343 3 3 3v0 13c0 1.105 0.895 2 2 2h22c1.105 0 2-0.895 2-2v-13c1.657 0 3-1.343 3-3v-1c-0.001-0.679-0.227-1.304-0.606-1.808zM26 2v4h-20v-4h20zM10.193 15h-4.193l4-7h2.189zM13.234 8h2.266v7h-4.266zM16.5 8h2.266l2 7h-4.266v-7zM19.806 8h2.194l4 7h-4.194zM2 14v-1c0-0.226 0.075-0.435 0.202-0.602l2.998-3.998c0.184-0.244 0.474-0.4 0.8-0.4h2.852l-4 7h-1.852c-0.552 0-1-0.448-1-1zM20 30h-7.5v-10h7.5v10zM27 30h-6v-10c0-0.552-0.448-1-1-1h-7.5c-0.552 0-1 0.448-1 1v10h-6.5v-13h22v13zM30 14c0 0.552-0.448 1-1 1h-1.853l-4-7h2.853c0.326 0 0.616 0.156 0.798 0.398l3.002 4.003c0.125 0.165 0.2 0.374 0.2 0.6v1z"></path>
</svg>
<svg id="icon-sound" width="32" height="32" viewBox="0 0 32 32" x="96" y="96">
<path d="M26.994 14v0c0 0.276 0.224 0.5 0.5 0.5s0.5-0.224 0.5-0.5 0 0 0-0.008c-0.008-5.51-4.471-9.975-9.98-9.986-0.008-0.002-0.017-0.004-0.027-0.006-0.277-0-0.501 0.224-0.501 0.5s0.224 0.5 0.5 0.5v0c4.971 0.003 9 4.030 9.008 8.999zM9.094 0.875c-0.543-0.543-1.293-0.878-2.121-0.878-1.657 0-3 1.343-3 3 0 0.001 0 0.002 0 0.004v13.758l-3.123 3.121c-0.543 0.543-0.878 1.293-0.878 2.121s0.336 1.578 0.878 2.121l7.006 7c0.543 0.544 1.294 0.881 2.123 0.881s1.58-0.337 2.123-0.881l3.123-3.121h13.774c0 0 0.001 0 0.001 0 1.657 0 3-1.343 3-3 0-0.828-0.336-1.578-0.878-2.121zM13.805 26.582l-3.124 3.121c-0.181 0.181-0.431 0.293-0.707 0.293s-0.527-0.112-0.707-0.293l-7.007-7c-0.181-0.181-0.292-0.431-0.292-0.706s0.112-0.526 0.292-0.706l3.123-3.122c0.009-0.009 0.012-0.022 0.021-0.030l8.433 8.424c-0.004 0.012-0.017 0.015-0.026 0.024zM15.221 25.996c-0.165 0.014-0.317 0.045-0.462 0.093l-8.879-8.889c0.043-0.13 0.075-0.282 0.088-0.439l0-12.049 21.315 21.288h-12.058zM29.916 25.379c-0.152 0.365-0.504 0.617-0.916 0.621h-0.3l-22.724-22.7v-0.3c0-0 0-0.001 0-0.001 0-0.552 0.448-1 1-1 0.276 0 0.526 0.112 0.707 0.293l22.022 22c0.181 0.181 0.293 0.431 0.293 0.707 0 0.139-0.028 0.271-0.079 0.391zM17.985 2v0c6.63 0.002 12.004 5.372 12.015 11.999v0.001c0 0.552 0.448 1 1 1s1-0.448 1-1 0 0 0-0.008c-0.008-7.721-6.264-13.977-13.984-13.986-0.008-0.002-0.017-0.004-0.027-0.006-0.002-0-0.002-0-0.003-0-0.552 0-1 0.448-1 1s0.447 0.999 0.998 1z"></path>
</svg>
<svg id="icon-stack" width="32" height="32" viewBox="0 0 32 32" x="144" y="96">
<path d="M31.924 18.455l-4-15.006c-0.247-0.844-1.014-1.449-1.923-1.449-0 0-0.001 0-0.001 0h-20c-0.908 0-1.675 0.606-1.918 1.435l-4.004 15.020c-0.048 0.163-0.077 0.35-0.078 0.544v7.001c0 2.209 1.791 4 4 4h24c2.209 0 4-1.791 4-4v-7c-0-0.194-0.028-0.382-0.080-0.559zM30 26c0 1.105-0.895 2-2 2h-24c-1.105 0-2-0.895-2-2v-7l4-15h20l4 15v7zM23.742 6h-15.484c-0 0-0 0-0.001 0-0.461 0-0.849 0.312-0.965 0.736l-3.447 12.007c-0.021 0.077-0.034 0.166-0.034 0.257 0 0.552 0.448 1 1 1 0 0 0 0 0.001 0h4.568l1.447 2.895c0.336 0.66 1.010 1.105 1.789 1.105 0 0 0 0 0 0h6.766c0 0 0 0 0 0 0.778 0 1.453-0.445 1.783-1.094l1.452-2.906h4.569c0.552-0 1-0.448 1-1 0-0.091-0.012-0.18-0.035-0.264l-3.443-11.993c-0.117-0.431-0.506-0.743-0.966-0.743-0 0-0 0-0.001 0zM24.281 18h-1.662c-0.002 0-0.004 0-0.007 0-0.777 0-1.45 0.445-1.777 1.095l-1.452 2.905h-6.766l-1.447-2.894c-0.333-0.661-1.005-1.106-1.782-1.106-0.002 0-0.005 0-0.007 0h-4.047l2.924-11h15.484l2.924 11h-2.385z"></path>
</svg>
<svg id="icon-star" width="32" height="32" viewBox="0 0 32 32" x="192" y="96">
<path d="M31.881 12.057c-0.288-0.799-0.984-1.385-1.83-1.51l-8.339-1.239-3.62-7.514c-0.392-0.773-1.181-1.294-2.092-1.294s-1.7 0.521-2.086 1.281l-3.625 7.527-8.327 1.238c-0.858 0.127-1.554 0.712-1.837 1.495-0.081 0.23-0.125 0.476-0.125 0.733 0 0.614 0.251 1.169 0.657 1.568l6.1 6.093-1.415 8.451c-0.018 0.108-0.029 0.232-0.029 0.358 0 0.763 0.384 1.436 0.969 1.837 0.38 0.262 0.841 0.416 1.338 0.416 0 0 0.001 0 0.001 0 0.409-0 0.794-0.104 1.131-0.286l7.248-3.899 7.26 3.908c0.323 0.176 0.708 0.28 1.116 0.28 0.498 0 0.959-0.154 1.341-0.416 0.585-0.401 0.969-1.075 0.969-1.838 0-0.126-0.010-0.249-0.030-0.37l-1.414-8.438 6.1-6.093c0.407-0.401 0.659-0.958 0.659-1.574 0-0.256-0.043-0.501-0.123-0.73zM23.588 18.863c-0.405 0.401-0.656 0.957-0.656 1.572 0 0.128 0.011 0.253 0.032 0.375l1.413 8.439-7.259-3.907c-0.323-0.177-0.708-0.281-1.117-0.281s-0.794 0.104-1.13 0.287l-7.248 3.901 1.416-8.452c0.019-0.109 0.030-0.234 0.030-0.362 0-0.615-0.251-1.171-0.656-1.572l-6.1-6.091 8.326-1.241c0.77-0.114 1.407-0.594 1.738-1.254l3.623-7.526 3.62 7.513c0.336 0.674 0.973 1.153 1.729 1.265l8.34 1.243z"></path>
</svg>
<svg id="icon-study" width="32" height="32" viewBox="0 0 32 32" x="240" y="96">
<path d="M32 8c0-0.003 0-0.007 0-0.011 0-1.415-0.984-2.6-2.305-2.909l-13.033-3.004c-0.201-0.047-0.431-0.074-0.668-0.074s-0.467 0.027-0.688 0.078l-12.98 2.996c-1.344 0.316-2.329 1.505-2.329 2.924s0.985 2.608 2.309 2.92l2.694 0.621v8.459c0 2.654 3.038 5 11 5s11-2.346 11-5v-8.459l2.674-0.617c1.342-0.312 2.326-1.498 2.326-2.913 0-0.004 0-0.008-0-0.012zM25 20c0 1.106-3 3-9 3s-9-1.894-9-3v-8l8.338 1.924c0.201 0.047 0.431 0.074 0.668 0.074s0.467-0.027 0.688-0.078l8.306-1.92v8zM16.225 11.975c-0.068 0.016-0.145 0.025-0.225 0.025s-0.157-0.009-0.232-0.026l-12.993-2.999c-0.449-0.105-0.778-0.502-0.778-0.975s0.329-0.87 0.771-0.974l13.007-3.001c0.068-0.016 0.145-0.025 0.225-0.025s0.157 0.009 0.232 0.026l12.993 2.999c0.449 0.105 0.778 0.502 0.778 0.975s-0.329 0.87-0.771 0.974zM29 13v9c0 0.552 0.448 1 1 1s1-0.448 1-1v-9c0-0.552-0.448-1-1-1s-1 0.448-1 1zM30 24c-1.1 0-2 2.9-2 4 0 1.105 0.895 2 2 2s2-0.895 2-2c0-1.1-0.9-4-2-4z"></path>
</svg>
<svg id="icon-tag" width="32" height="32" viewBox="0 0 32 32" x="288" y="96">
<path d="M31.392 13.88l-5-8c-0.719-1.136-1.968-1.88-3.392-1.88 0 0 0 0 0 0h-19c-2.209 0-4 1.791-4 4v16c0 2.209 1.791 4 4 4h19c0 0 0 0 0 0 1.424 0 2.673-0.744 3.382-1.864l5.010-8.016c0.382-0.602 0.608-1.334 0.608-2.12s-0.226-1.518-0.618-2.136zM29.692 17.060l-5 8c-0.356 0.568-0.979 0.94-1.689 0.94-0.001 0-0.002 0-0.003 0h-19c-1.105 0-2-0.895-2-2v-16c0-1.105 0.895-2 2-2h19c0.003-0 0.007-0 0.011-0 0.71 0 1.332 0.372 1.684 0.931l5.005 8.008c0.19 0.301 0.302 0.668 0.302 1.060s-0.113 0.759-0.307 1.069zM23 13c-1.657 0-3 1.343-3 3s1.343 3 3 3c1.657 0 3-1.343 3-3s-1.343-3-3-3zM23 18c-1.105 0-2-0.895-2-2s0.895-2 2-2c1.105 0 2 0.895 2 2s-0.895 2-2 2z"></path>
</svg>
<svg id="icon-trash" width="28" height="32" viewBox="0 0 28 32" x="336" y="96">
<path d="M27.981 6.817c-0.094-1.574-1.392-2.815-2.981-2.817h-3v-1c0-1.657-1.343-3-3-3h-10c-1.657 0-3 1.343-3 3v0 1h-3c-1.588 0.002-2.886 1.243-2.981 2.808l-0.019 0.008v2.184c0 1.105 0.895 2 2 2v0 17c0 2.209 1.791 4 4 4h16c2.209 0 4-1.791 4-4v-17c1.105 0 2-0.895 2-2v-2.183h-0.019zM8 3c0-0.552 0.448-1 1-1h10c0.552 0 1 0.448 1 1v1h-12v-1zM24 28c0 1.105-0.895 2-2 2h-16c-1.105 0-2-0.895-2-2v-17h20v17zM26 8v1h-24v-2c0-0.552 0.448-1 1-1h22c0.552 0 1 0.448 1 1v1zM7 28h2c0.552 0 1-0.448 1-1v-13c0-0.552-0.448-1-1-1h-2c-0.552 0-1 0.448-1 1v13c0 0.552 0.448 1 1 1zM7 14h2v13h-2v-13zM13 28h2c0.552 0 1-0.448 1-1v-13c0-0.552-0.448-1-1-1h-2c-0.552 0-1 0.448-1 1v13c0 0.552 0.448 1 1 1zM13 14h2v13h-2v-13zM19 28h2c0.552 0 1-0.448 1-1v-13c0-0.552-0.448-1-1-1h-2c-0.552 0-1 0.448-1 1v13c0 0.552 0.448 1 1 1zM19 14h2v13h-2v-13z"></path>
</svg>
<svg id="icon-truck" width="32" height="32" viewBox="0 0 32 32" x="384" y="96">
<path d="M24.832 11.445c-0.182-0.27-0.486-0.445-0.832-0.445-0 0-0 0-0 0h-1c-0.552 0-1 0.448-1 1v6c0 0.552 0.448 1 1 1h4c0.552 0 1-0.448 1-1v-1.5c-0-0.207-0.063-0.399-0.17-0.559zM27 18h-4v-6h1l3 4.5v1.5zM31.5 15.336l-4-6c-0.546-0.81-1.46-1.336-2.496-1.336-0.001 0-0.003 0-0.004 0h-4v-2c0-1.657-1.343-3-3-3h-15c-1.657 0-3 1.343-3 3v11c0 1.657 1.343 3 3 3v0 3c0 1.657 1.343 3 3 3h1.142c0.453 1.737 2.008 2.999 3.858 2.999s3.405-1.262 3.852-2.971l5.289-0.028c0.452 1.738 2.008 3.001 3.858 3.001s3.406-1.263 3.852-2.973l1.148-0.028c1.657 0 3-1.343 3-3v-6c0-0.003 0-0.006 0-0.010 0-0.616-0.187-1.189-0.507-1.665zM3 18c-0.552 0-1-0.448-1-1v-11c0-0.552 0.448-1 1-1h15c0.552 0 1 0.448 1 1v11c0 0.552-0.448 1-1 1h-15zM11 27c-1.105 0-2-0.895-2-2s0.895-2 2-2c1.105 0 2 0.895 2 2s-0.895 2-2 2zM24 27c-1.105 0-2-0.895-2-2s0.895-2 2-2c1.105 0 2 0.895 2 2s-0.895 2-2 2zM30 23c0 0.552-0.448 1-1 1h-1.142c-0.452-1.738-2.008-3.001-3.858-3.001s-3.406 1.263-3.852 2.973l-5.289 0.028c-0.453-1.737-2.008-2.999-3.858-2.999s-3.405 1.262-3.852 2.971l-1.148 0.028c-0.552 0-1-0.448-1-1v-3h13c1.657 0 3-1.343 3-3v-7h4c0 0 0 0 0 0 0.345 0 0.65 0.175 0.83 0.441l4.002 6.004c0.105 0.156 0.168 0.348 0.168 0.555 0 0 0 0 0 0v6z"></path>
</svg>
<svg id="icon-t-shirt" width="32" height="32" viewBox="0 0 32 32" x="432" y="96">
<path d="M31.25 6.439l-5-4c-0.339-0.273-0.775-0.439-1.25-0.439h-18c-0 0-0.001 0-0.001 0-0.474 0-0.91 0.166-1.252 0.442l-4.996 3.997c-0.459 0.37-0.751 0.932-0.751 1.562 0 0.226 0.038 0.444 0.107 0.646l1.996 5.986c0.272 0.802 1.019 1.369 1.898 1.369 0.369 0 0.715-0.1 1.011-0.274l-0.009 12.272c0 1.105 0.895 2 2 2h18c1.105 0 2-0.895 2-2v-12.268c0.287 0.169 0.633 0.269 1.002 0.269 0.879 0 1.625-0.567 1.894-1.355l2.004-6.014c0.064-0.188 0.101-0.404 0.101-0.628 0-0.632-0.293-1.195-0.75-1.562zM19.754 4c-0.824 1.213-2.197 2-3.754 2s-2.93-0.787-3.744-1.984l7.498-0.016zM28 14l-3-2v16h-18v-16l-3 2-2-6 5-4h4.177c0.897 1.792 2.719 3 4.823 3s3.926-1.208 4.809-2.969l4.191-0.031 5 4z"></path>
</svg>
<svg id="icon-tv" width="32" height="32" viewBox="0 0 32 32" x="480" y="96">
<path d="M22.155 8.124c-2.457-0.533-5.279-0.839-8.173-0.839s-5.716 0.306-8.437 0.886c-0.090 0.027-0.372 0.281-0.483 0.613-0.688 1.976-1.085 4.245-1.085 6.607s0.396 4.631 1.126 6.745c0.070 0.194 0.351 0.447 0.699 0.521 2.463 0.535 5.286 0.84 8.18 0.84s5.716-0.306 8.437-0.886c0.091-0.027 0.372-0.281 0.484-0.613 0.688-1.976 1.085-4.245 1.085-6.607s-0.396-4.631-1.126-6.745c-0.070-0.194-0.352-0.448-0.7-0.521zM21.955 21.682c-2.396 0.52-5.149 0.818-7.971 0.818s-5.575-0.298-8.229-0.864c-0.4-1.83-0.779-3.992-0.779-6.243s0.379-4.413 1.078-6.427c2.355-0.383 5.108-0.681 7.93-0.681s5.575 0.298 8.229 0.864c0.399 1.829 0.779 3.991 0.779 6.242 0 2.252-0.38 4.414-1.078 6.428zM30.848 5.82c-0.198-0.809-0.868-1.418-1.696-1.521-3.96-0.509-8.529-0.799-13.166-0.799s-9.206 0.29-13.691 0.853c-0.303 0.049-0.974 0.658-1.169 1.454-0.732 2.921-1.151 6.258-1.151 9.694s0.419 6.773 1.208 9.964c0.138 0.525 0.809 1.134 1.637 1.237 2.11 0.256 4.23 0.444 6.347 0.576-0.094 0.041-0.163 0.122-0.188 0.221-0 0.555 3.137 1.002 7.007 1.002s7.007-0.447 7.007-1c-0.024-0.101-0.094-0.182-0.186-0.222 2.116-0.133 4.233-0.321 6.336-0.576 0.838-0.104 1.508-0.713 1.703-1.508 0.732-2.92 1.15-6.257 1.15-9.692 0-3.436-0.419-6.774-1.208-9.966zM28.9 24.72c-3.877 0.498-8.363 0.783-12.915 0.783s-9.037-0.285-13.44-0.837c-0.173-2.714-0.573-5.892-0.573-9.163s0.4-6.449 1.155-9.487c3.821-0.229 8.306-0.513 12.858-0.513s9.037 0.284 13.44 0.837c0.173 2.714 0.574 5.891 0.574 9.162s-0.401 6.448-1.155 9.485zM26.5 11.5c0.828 0 1.5-0.672 1.5-1.5s-0.672-1.5-1.5-1.5c-0.828 0-1.5 0.672-1.5 1.5s0.672 1.5 1.5 1.5zM26.5 9.5c0.276 0 0.5 0.224 0.5 0.5s-0.224 0.5-0.5 0.5c-0.276 0-0.5-0.224-0.5-0.5s0.224-0.5 0.5-0.5zM27.5 21.5c0.276 0 0.5 0.224 0.5 0.5s-0.224 0.5-0.5 0.5h-3c-0.276 0-0.5-0.224-0.5-0.5s0.224-0.5 0.5-0.5h3zM28.5 18.5c0.276 0 0.5 0.224 0.5 0.5s-0.224 0.5-0.5 0.5h-3c-0.276 0-0.5-0.224-0.5-0.5s0.224-0.5 0.5-0.5h3zM28.5 15.5c0.276 0 0.5 0.224 0.5 0.5s-0.224 0.5-0.5 0.5h-3c-0.276 0-0.5-0.224-0.5-0.5s0.224-0.5 0.5-0.5h3zM13.481 11.305c0.009-0.001 0.018-0.001 0.027-0.001 0.263 0 0.477 0.214 0.477 0.477 0 0.002 0 0.003-0 0.005-0.002 0.279-0.223 0.505-0.5 0.518l-3.757 0.257c-0.284 0.041-0.51 0.261-0.561 0.546l-0.167 1.895c-0.014 0.276-0.24 0.495-0.518 0.499-0.001 0-0.003 0-0.004 0-0.26 0-0.471-0.211-0.471-0.471 0-0.010 0-0.020 0.001-0.029l0.307-2.791c0.061-0.281 0.289-0.499 0.579-0.546l4.591-0.359z"></path>
</svg>
<svg id="icon-user" width="32" height="32" viewBox="0 0 32 32" x="528" y="96">
<path d="M31.109 28.336c-2.665-1.666-5.767-2.946-9.079-3.665 1.535-2.351 2.851-5.085 3.585-8.049 0.786-3.284 0.494-9.404-2.509-13.218-1.684-2.084-4.24-3.406-7.105-3.406s-5.42 1.322-7.091 3.389c-3.014 3.831-3.313 9.951-2.556 13.079 0.767 3.12 2.083 5.854 3.853 8.23-3.548 0.694-6.65 1.974-9.438 3.712-0.416 0.292-0.767 0.901-0.767 1.592 0 1.104 0.895 2 1.999 2h28c1.104-0 1.999-0.896 1.999-2 0-0.691-0.35-1.3-0.883-1.659zM20.267 23.4l-0.327 0.416c-2.385 2.739-5.5 2.739-7.879 0l-0.328-0.416c-2.302-2.886-3.694-6.587-3.694-10.612 0-0.718 0.044-1.425 0.13-2.12 0.538-4.196 2.992-8.666 7.831-8.666s7.293 4.47 7.839 8.749c0.077 0.611 0.121 1.317 0.121 2.034 0 4.026-1.392 7.728-3.72 10.649zM2 30c2.469-1.533 5.342-2.712 8.407-3.375l2.663-0.57c0.812 0.591 1.83 0.945 2.93 0.945s2.118-0.354 2.944-0.955l2.47 0.548c3.244 0.696 6.117 1.875 8.703 3.474l-28.117-0.067z"></path>
</svg>
<svg id="icon-video" width="32" height="32" viewBox="0 0 32 32" x="576" y="96">
<path d="M30 6h-0.886c-0.546 0.001-1.040 0.221-1.4 0.576l-2.714 2.672v-1.248c0-1.657-1.343-3-3-3h-19c-1.657 0-3 1.343-3 3v16c0 1.657 1.343 3 3 3h19c1.657 0 3-1.343 3-3v-1.22l2.71 2.672c0.36 0.355 0.854 0.575 1.4 0.576h0.89c1.105 0 2-0.895 2-2v-16.028c0-1.105-0.895-2-2-2zM3 25c-0.552 0-1-0.448-1-1v-16c0-0.552 0.448-1 1-1h19c0.552 0 1 0.448 1 1v16c0 0.552-0.448 1-1 1h-19zM30 24.028h-1l-4-4v-0.028l-1-1v-6l5-5h1v16.028z"></path>
</svg>
<svg id="icon-vinyl" width="32" height="32" viewBox="0 0 32 32" x="624" y="96">
<path d="M21.947 1.146c-1.761-0.725-3.805-1.147-5.948-1.147-8.837 0-16 7.163-16 16s7.163 16 16 16c6.694 0 12.428-4.111 14.815-9.947 0.764-1.867 1.185-3.911 1.185-6.053 0-6.694-4.111-12.428-9.945-14.815zM10.8 29c-5.201-2.122-8.799-7.14-8.799-12.998 0-7.732 6.268-14 14-14s14 6.268 14 14c0 1.872-0.368 3.659-1.035 5.292-2.094 5.106-7.115 8.703-12.975 8.703-1.87 0-3.654-0.366-5.284-1.030zM16.748 14.146c-0.22-0.091-0.476-0.144-0.745-0.144-1.105 0-2 0.895-2 2s0.895 2 2 2c0.837 0 1.553-0.514 1.852-1.243 0.096-0.234 0.149-0.49 0.149-0.758 0-0.838-0.515-1.556-1.247-1.853zM15.632 16.931c-0.371-0.152-0.628-0.51-0.628-0.928 0-0.552 0.448-1 1-1s1 0.448 1 1c0 0.134-0.026 0.262-0.074 0.379-0.15 0.364-0.508 0.62-0.925 0.62-0.136 0-0.265-0.027-0.383-0.076zM18.232 10.431c-0.66-0.272-1.427-0.43-2.23-0.43-3.314 0-6 2.686-6 6s2.686 6 6 6c2.51 0 4.661-1.542 5.556-3.73 0.286-0.7 0.444-1.467 0.444-2.27 0-2.511-1.543-4.662-3.732-5.556zM14.515 19.713c-1.485-0.606-2.513-2.040-2.513-3.713 0-2.209 1.791-4 4-4s4 1.791 4 4c0 0.536-0.105 1.048-0.297 1.515-0.599 1.457-2.033 2.483-3.706 2.483-0.535 0-1.046-0.105-1.513-0.295zM23.429 18.974c0.023-0.055 0.036-0.119 0.036-0.186 0-0.276-0.224-0.5-0.5-0.5-0.209 0-0.389 0.129-0.463 0.311l-0.001 0.003c-0.704 1.733-2.032 3.091-3.698 3.817-0.221 0.097-0.341 0.272-0.341 0.474 0 0.276 0.224 0.5 0.5 0.5 0.069 0 0.134-0.014 0.194-0.039 0.006 0.001 0.010-0.011 0.018-0.014 1.945-0.85 3.454-2.395 4.238-4.313l0.019-0.053zM26.863 19.811c-0.055-0.023-0.119-0.036-0.186-0.036-0.209 0-0.388 0.128-0.463 0.311-1.108 2.727-3.195 4.86-5.813 6-0.247 0.107-0.367 0.282-0.367 0.484 0 0.276 0.224 0.5 0.5 0.5 0.069 0 0.134-0.014 0.194-0.039 0.010-0.005 0.018-0.016 0.030-0.022 2.917-1.275 5.18-3.591 6.355-6.468 0.052-0.135 0.065-0.199 0.065-0.266 0-0.21-0.129-0.39-0.313-0.464zM25 19.067c-0.055-0.023-0.119-0.036-0.187-0.036-0.209 0-0.388 0.128-0.463 0.311-0.905 2.232-2.613 3.977-4.755 4.909l-0.058 0.022c-0.18 0.078-0.304 0.255-0.304 0.46 0 0.276 0.224 0.5 0.5 0.5 0.071 0 0.139-0.015 0.2-0.041 0.008 0.001 0.013-0.013 0.024-0.019 2.431-1.062 4.317-2.992 5.296-5.389 0.047-0.122 0.060-0.186 0.060-0.253 0-0.209-0.128-0.388-0.31-0.462zM13.5 8.908c-0.079-0.18-0.255-0.303-0.459-0.303-0.071 0-0.139 0.015-0.201 0.042-0.006-0.001-0.011 0.010-0.019 0.013-1.944 0.85-3.453 2.395-4.237 4.313l-0.019 0.053c-0.023 0.055-0.036 0.119-0.036 0.185 0 0.276 0.224 0.5 0.5 0.5 0.209 0 0.389-0.129 0.463-0.311l0.001-0.003c0.704-1.733 2.032-3.090 3.698-3.815 0.229-0.094 0.356-0.272 0.356-0.48 0-0.070-0.014-0.137-0.040-0.197zM11.925 5.231c-0.078-0.18-0.255-0.304-0.46-0.304-0.071 0-0.139 0.015-0.2 0.042-0.009 0.006-0.019 0.014-0.028 0.021-2.916 1.275-5.18 3.591-6.355 6.468-0.052 0.135-0.065 0.199-0.065 0.266 0 0.276 0.224 0.5 0.5 0.5 0.209 0 0.388-0.128 0.463-0.31 1.107-2.727 3.195-4.86 5.813-6 0.254-0.104 0.381-0.282 0.381-0.49 0-0.070-0.014-0.136-0.040-0.197zM12.449 7.725c0.191-0.073 0.324-0.255 0.324-0.468 0-0.276-0.224-0.5-0.5-0.5-0.079 0-0.154 0.018-0.221 0.051-0.007-0.001-0.012 0.013-0.023 0.017-2.431 1.063-4.317 2.994-5.296 5.391-0.044 0.119-0.056 0.18-0.056 0.243 0 0.276 0.224 0.5 0.5 0.5 0.205 0 0.382-0.124 0.459-0.301 0.906-2.232 2.613-3.976 4.755-4.909l0.058-0.022z"></path>
</svg>
<svg id="icon-wallet" width="32" height="32" viewBox="0 0 32 32" x="672" y="96">
<path d="M18 17.5c-1.105 0-2 0.895-2 2s0.895 2 2 2c1.105 0 2-0.895 2-2s-0.895-2-2-2zM29 12.5v0-9c0-1.657-1.343-3-3-3h-20.5c-3.036 0.003-5.497 2.464-5.5 5.5v20c0.003 3.036 2.464 5.497 5.5 5.5h18c3.036-0.003 5.497-2.464 5.5-5.5v-1.5c1.83-1.383 3-3.555 3-6s-1.17-4.617-2.981-5.986zM5.5 2.5h20.5c0.552 0 1 0.448 1 1v6.184c-0.297-0.113-0.64-0.18-0.998-0.184h-0.002v-5c0-0.552-0.448-1-1-1h-21c-0.552 0-1 0.448-1 1v3.943c-0.615-0.63-0.994-1.492-0.994-2.443 0-1.931 1.563-3.496 3.493-3.5zM25 5.5h-21v-1h21v1zM25 6.5v1h-21v-1h21zM25 8.5v1h-19.5c-0.546-0.003-1.062-0.132-1.52-0.359l0.020-0.641h21zM27 26c0 1.933-1.567 3.5-3.5 3.5h-18c-1.933 0-3.5-1.567-3.5-3.5v-15.761c0.941 0.785 2.162 1.261 3.495 1.261 0.002 0 0.003 0 0.005 0h20.5c0.552 0 1 0.448 1 1v2h-9c-2.761 0-5 2.239-5 5s2.239 5 5 5h9v1.5zM28.277 22.5h-10.277c-1.657 0-3-1.343-3-3s1.343-3 3-3h9c0.65-0.010 1.226-0.319 1.597-0.795 0.102-0.137 0.186-0.29 0.249-0.452 0.014-0.035 0.030-0.052 0.038-0.074 0.695 0.912 1.114 2.068 1.114 3.322 0 1.574-0.66 2.993-1.718 3.998z"></path>
</svg>
<svg id="icon-world" width="32" height="32" viewBox="0 0 32 32" x="720" y="96">
<path d="M16 0c-8.837 0-16 7.163-16 16s7.163 16 16 16c8.837 0 16-7.163 16-16s-7.163-16-16-16zM29.91 15.484h-6.194c-0.049-2.333-0.48-4.55-1.231-6.613 1.518-0.486 2.788-1.247 3.937-2.155 2.047 2.346 3.362 5.393 3.487 8.743zM15.429 29.907c-1.745-1.482-3.161-3.292-4.165-5.341 1.223-0.501 2.684-0.754 4.197-0.798l0.023 6.141zM16.57 2.093c1.983 1.691 3.55 3.808 4.569 6.214-1.342 0.598-2.938 0.904-4.598 0.956l-0.025-7.174zM18.289 2.269c2.902 0.494 5.432 1.825 7.399 3.734-1.026 0.794-2.19 1.486-3.438 2.022-1.054-2.211-2.356-4.134-3.962-5.755zM15.484 2.090v7.174c-1.685-0.053-3.281-0.359-4.776-0.882 1.172-2.481 2.74-4.598 4.699-6.27zM9.854 8.063c-1.351-0.576-2.515-1.268-3.573-2.091 1.999-1.879 4.529-3.21 7.348-3.692-1.522 1.609-2.825 3.532-3.73 5.665zM10.432 9.369c1.498 0.537 3.227 0.873 5.026 0.928l0.026 5.187h-6.171c0.047-2.205 0.453-4.3 1.162-6.251zM15.484 16.516v6.219c-1.689 0.047-3.294 0.334-4.805 0.828-0.766-2.101-1.306-4.503-1.365-7.024l6.17-0.023zM13.711 29.729c-2.612-0.444-4.909-1.561-6.774-3.166 0.967-0.655 2.052-1.245 3.203-1.702 1.024 1.856 2.184 3.476 3.572 4.869zM16.516 29.91v-6.142c1.536 0.044 2.996 0.297 4.376 0.732-1.16 2.115-2.576 3.925-4.297 5.388zM21.754 24.826c1.257 0.495 2.342 1.085 3.341 1.788-1.897 1.557-4.193 2.674-6.724 3.106 1.306-1.381 2.466-3.001 3.337-4.788zM21.202 23.529c-1.392-0.46-2.997-0.747-4.662-0.793l-0.024-6.22h6.171c-0.059 2.544-0.6 4.946-1.533 7.14zM16.516 15.484v-5.187c1.825-0.056 3.554-0.392 5.17-0.966 0.547 1.852 0.954 3.948 1 6.132l-6.171 0.021zM5.609 6.746c1.113 0.881 2.383 1.642 3.746 2.229-0.596 1.961-1.026 4.177-1.074 6.487l-6.194 0.022c0.127-3.374 1.441-6.419 3.533-8.751zM2.090 16.516h6.194c0.058 2.671 0.622 5.194 1.599 7.501-1.445 0.423-2.648 1.092-3.751 1.892-2.369-2.437-3.907-5.724-4.040-9.368zM25.821 25.876c-1.054-0.766-2.257-1.436-3.539-1.952 0.813-2.213 1.376-4.737 1.435-7.385l6.194-0.023c-0.134 3.67-1.672 6.956-4.089 9.359z"></path>
</svg>
</svg>
